<svg width="30" height="30" viewBox="0 0 30 30" fill="none" xmlns="http://www.w3.org/2000/svg">
<path d="M23 0C26.866 2.57702e-07 30 3.13401 30 7V23C30 26.866 26.866 30 23 30H7C3.13401 30 1.61069e-08 26.866 0 23V7C2.57711e-07 3.13401 3.13401 1.61064e-08 7 0H23ZM25.9521 4.00098C24.7195 4.20612 24.1935 4.41563 23.6943 4.66797C23.6861 4.67214 23.6779 4.67661 23.6699 4.68066C23.482 4.77588 23.2981 4.87739 23.1172 4.98438C23.1099 4.98868 23.1027 4.99289 23.0957 4.99707C22.9256 5.09787 22.7578 5.20344 22.5947 5.31445C22.5888 5.3185 22.5829 5.32224 22.5771 5.32617C22.4559 5.40892 22.3367 5.495 22.2188 5.58203C22.2058 5.5916 22.1927 5.60183 22.1797 5.61133C22.133 5.64531 22.0871 5.67994 22.042 5.71582C22.0094 5.74177 21.9767 5.76797 21.9434 5.79297C21.9074 5.81982 21.8716 5.84662 21.8369 5.875C21.8156 5.89248 21.7942 5.91073 21.7725 5.92773C21.74 5.95293 21.7085 5.97872 21.6777 6.00586C21.659 6.02247 21.6398 6.03908 21.6201 6.05469C21.5844 6.08225 21.55 6.11055 21.5166 6.14062C21.4892 6.16527 21.4609 6.18832 21.4316 6.21094C21.4001 6.23532 21.3705 6.26165 21.3408 6.28809C21.3251 6.30212 21.309 6.31631 21.293 6.33008C21.2545 6.36294 21.2171 6.39671 21.1797 6.43066C21.1507 6.45714 21.1211 6.48358 21.0908 6.50879C21.0709 6.52544 21.0516 6.54231 21.0332 6.56055C21.0192 6.57445 21.0045 6.58788 20.9893 6.60059C20.948 6.63457 20.9102 6.67179 20.8721 6.70898C20.8625 6.71828 20.8619 6.71837 20.8525 6.72754C20.8463 6.73358 20.84 6.73925 20.834 6.74512C20.8185 6.76023 20.8028 6.77513 20.7861 6.78906C20.748 6.82049 20.7122 6.85452 20.6768 6.88867C20.67 6.89522 20.6631 6.90167 20.6562 6.9082C20.6414 6.92241 20.6261 6.93694 20.6113 6.95117C20.5924 6.96937 20.5736 6.9877 20.5547 7.00586C20.5398 7.02014 20.5246 7.03452 20.5098 7.04883L20.3867 7.17188C20.3739 7.18628 20.3604 7.20018 20.3467 7.21387C20.3413 7.219 20.3363 7.22451 20.3311 7.22949C20.322 7.23812 20.3213 7.23769 20.3125 7.24609C20.2732 7.28332 20.2335 7.32029 20.1973 7.36035C20.1854 7.37368 20.1729 7.38681 20.1602 7.39941C20.0901 7.46448 20.09 7.46511 19.8779 7.6875C19.858 7.70837 19.8374 7.72923 19.8174 7.75C19.7803 7.78849 19.7435 7.82717 19.707 7.86621C19.6969 7.87712 19.687 7.88853 19.6768 7.89941C19.6714 7.90516 19.6654 7.91044 19.6602 7.91602C19.6497 7.92721 19.6394 7.93901 19.6289 7.9502C19.604 7.97665 19.579 8.00334 19.5547 8.03027C19.5352 8.05204 19.5147 8.07282 19.4941 8.09375C19.4568 8.13183 19.42 8.17024 19.3857 8.21094C19.3666 8.23394 19.3468 8.25652 19.3262 8.27832C19.2937 8.31259 19.2618 8.34758 19.2305 8.38281C19.2129 8.40264 19.1954 8.42259 19.1777 8.44238C19.1742 8.44634 19.1704 8.45026 19.167 8.4541C19.1452 8.47853 19.1235 8.50309 19.1016 8.52734C19.0677 8.56466 19.0335 8.60226 19.001 8.64062C18.9816 8.66357 18.9623 8.68647 18.9424 8.70898C18.9155 8.73939 18.8885 8.76982 18.8623 8.80078C18.8425 8.82416 18.8221 8.84713 18.8018 8.87012C18.7693 8.9068 18.7377 8.94413 18.7061 8.98145C18.6962 8.99309 18.6857 9.00498 18.6758 9.0166C18.6708 9.02241 18.6659 9.02854 18.6611 9.03418C18.6463 9.05157 18.6311 9.06863 18.6162 9.08594C18.5737 9.13521 18.5312 9.18491 18.4902 9.23535C18.4667 9.26442 18.4432 9.2937 18.4189 9.32227C18.38 9.3681 18.3416 9.41433 18.3037 9.46094C18.288 9.48031 18.2717 9.49923 18.2559 9.51855C18.2494 9.52641 18.2428 9.53511 18.2363 9.54297C18.2235 9.55861 18.2101 9.57422 18.1973 9.58984C18.1635 9.63101 18.1299 9.6723 18.0967 9.71387C18.0769 9.73862 18.0571 9.7635 18.0371 9.78809C17.9981 9.83613 17.9589 9.88476 17.9209 9.93359C17.893 9.96949 17.8652 10.0054 17.8369 10.041C17.8003 10.0871 17.763 10.1328 17.7275 10.1797C17.7018 10.2137 17.676 10.2478 17.6494 10.2812C17.5682 10.3832 17.4892 10.4867 17.4111 10.5908C17.3999 10.6059 17.3883 10.6207 17.377 10.6357C17.3361 10.6899 17.2949 10.7441 17.2549 10.7988C17.2298 10.8331 17.2043 10.8674 17.1787 10.9014C17.1185 10.9811 17.059 11.0613 17.001 11.1426C16.9744 11.1798 16.9478 11.2169 16.9209 11.2539C16.8709 11.3228 16.8216 11.3925 16.7725 11.4619C16.7579 11.4825 16.7431 11.5029 16.7285 11.5234C16.6529 11.6298 16.5777 11.7372 16.5039 11.8447C16.4994 11.8513 16.4956 11.8579 16.4912 11.8643C16.4386 11.9409 16.3858 12.0176 16.334 12.0947L16.1992 12.2969C16.177 12.3308 16.1543 12.3646 16.1318 12.3984C16.0512 12.5198 15.9723 12.6426 15.8945 12.7656C15.8812 12.7867 15.8679 12.8081 15.8545 12.8291C15.7883 12.9333 15.7232 13.0381 15.6592 13.1436C15.6453 13.1664 15.6311 13.1891 15.6172 13.2119C15.5635 13.2996 15.5105 13.3877 15.459 13.4766C15.4464 13.4983 15.4345 13.5203 15.4219 13.542C15.3619 13.645 15.302 13.7484 15.2441 13.8525C15.2398 13.8604 15.2357 13.8684 15.2314 13.876C15.1887 13.9531 15.1472 14.0313 15.1064 14.1094C15.0972 14.1271 15.0874 14.1444 15.0781 14.1621C15.0719 14.174 15.0658 14.1863 15.0596 14.1982C15.0566 14.2039 15.0536 14.2093 15.0508 14.2148C15.0366 14.2418 15.0233 14.2684 15.0127 14.2969C15.0109 14.3025 15.0085 14.308 15.0068 14.3135H14.9932C14.9932 14.3002 14.9932 14.2999 14.9854 14.2832C14.9798 14.2726 14.9801 14.2722 14.9746 14.2617C14.9684 14.2497 14.9614 14.2376 14.9551 14.2256C14.9506 14.2171 14.9458 14.2086 14.9414 14.2002C14.9091 14.1384 14.8766 14.0767 14.8428 14.0156C14.8304 13.9933 14.8178 13.9707 14.8057 13.9482C14.7292 13.8068 14.6508 13.6662 14.5693 13.5273C14.5575 13.5072 14.545 13.487 14.5332 13.4668C14.441 13.3092 14.3473 13.1524 14.251 12.9971C14.2463 12.9895 14.2419 12.9819 14.2373 12.9746C14.1748 12.8738 14.1111 12.7737 14.0469 12.6738C14.0337 12.6534 14.0209 12.6327 14.0078 12.6123C13.961 12.5393 13.913 12.467 13.8652 12.3945C13.8548 12.3787 13.8444 12.3626 13.834 12.3467C13.7905 12.2803 13.7466 12.2142 13.7021 12.1484C13.6931 12.1351 13.6838 12.1218 13.6748 12.1084C13.6561 12.0805 13.6379 12.0522 13.6191 12.0244C13.6149 12.0182 13.6105 12.0119 13.6064 12.0059C13.4613 11.7914 13.3126 11.5792 13.1621 11.3682C13.1586 11.3633 13.1547 11.3582 13.1514 11.3535C13.068 11.2365 12.9838 11.1197 12.8984 11.0039C12.8884 10.9903 12.8782 10.9766 12.8682 10.9629C12.8214 10.8991 12.7742 10.8357 12.7266 10.7725C12.7075 10.7472 12.688 10.7216 12.6689 10.6963C12.6461 10.6659 12.6235 10.6349 12.6006 10.6045C12.5929 10.5943 12.5848 10.5844 12.5771 10.5742C12.5732 10.569 12.5692 10.5636 12.5654 10.5586C12.5477 10.535 12.5302 10.511 12.5127 10.4873C12.4753 10.4363 12.4359 10.3864 12.3965 10.3369C12.3645 10.2969 12.3328 10.2565 12.3018 10.2158C12.2631 10.1651 12.2243 10.1144 12.1846 10.0645C12.1552 10.0275 12.1256 9.99036 12.0967 9.95312C12.0593 9.90503 12.0208 9.85687 11.9824 9.80957C11.9613 9.78356 11.9399 9.75763 11.9189 9.73145C11.886 9.69021 11.8528 9.64921 11.8193 9.6084C11.8032 9.58872 11.7876 9.56853 11.7715 9.54883L11.7129 9.47852C11.7097 9.47467 11.7072 9.47054 11.7041 9.4668C11.6977 9.45899 11.691 9.45117 11.6846 9.44336C11.6686 9.42389 11.6526 9.4043 11.6367 9.38477C11.5985 9.33757 11.5592 9.29119 11.5195 9.24512C11.4928 9.21413 11.4662 9.18313 11.4404 9.15137C11.4117 9.11578 11.3823 9.08091 11.3516 9.04688C11.3237 9.016 11.2966 8.98444 11.2705 8.95215C11.2454 8.92106 11.2199 8.8903 11.1934 8.86035C11.1753 8.84003 11.1573 8.81946 11.1396 8.79883C11.0841 8.73319 11.0276 8.66831 10.9697 8.60449C10.9488 8.58142 10.9275 8.5588 10.9072 8.53516C10.8811 8.50409 10.8543 8.47374 10.8262 8.44434C10.8089 8.42628 10.7917 8.40758 10.7754 8.38867C10.7509 8.35948 10.7267 8.33025 10.7002 8.30273C10.6723 8.27397 10.6449 8.24542 10.6191 8.21484C10.5988 8.19055 10.5774 8.1667 10.5557 8.14355C10.5413 8.12842 10.5268 8.11304 10.5127 8.09766C10.4892 8.07168 10.4655 8.04592 10.4414 8.02051C10.4255 8.00374 10.4091 7.9868 10.3936 7.96973C10.3683 7.94166 10.3427 7.91395 10.3164 7.88672C10.2969 7.86651 10.277 7.84667 10.2578 7.82617C10.2236 7.78932 10.1886 7.75265 10.1533 7.7168C10.1258 7.68891 10.0985 7.66085 10.0723 7.63184C10.0608 7.61896 10.0485 7.60586 10.0361 7.59375C10.0202 7.5787 10.004 7.56401 9.98926 7.54785C9.96385 7.51918 9.93707 7.49225 9.90918 7.46582C9.89101 7.4488 9.87317 7.43143 9.85645 7.41309C9.82132 7.37369 9.78356 7.33719 9.74512 7.30078C9.73856 7.29457 9.73195 7.28825 9.72559 7.28223C9.71914 7.27609 9.71231 7.27061 9.70605 7.26465C9.69029 7.24973 9.6747 7.23478 9.66016 7.21875C9.63124 7.18641 9.60163 7.1552 9.57031 7.125C9.56038 7.11548 9.54995 7.10621 9.54004 7.09668C9.52594 7.08312 9.51217 7.06921 9.49805 7.05566C9.47995 7.03832 9.46142 7.02129 9.44336 7.00391C9.42907 6.99015 9.4147 6.97565 9.40039 6.96191C9.39358 6.95538 9.38669 6.94892 9.37988 6.94238C9.34626 6.91002 9.31232 6.87764 9.27637 6.84766L9.21484 6.79297C9.20847 6.7868 9.20247 6.78041 9.19629 6.77441C9.15641 6.73555 9.11725 6.69584 9.07422 6.66016C9.05646 6.64555 9.0399 6.63021 9.02344 6.61426C9.00351 6.59482 8.98267 6.57622 8.96191 6.55762C8.95751 6.55369 8.95252 6.54971 8.94824 6.5459C8.91583 6.51692 8.88324 6.48772 8.85059 6.45898C8.83307 6.44361 8.81528 6.42855 8.79785 6.41309C8.76152 6.38075 8.72598 6.3475 8.68848 6.31641C8.67583 6.30592 8.66316 6.29554 8.65137 6.28418C8.62783 6.26082 8.6035 6.23919 8.57715 6.21875C8.55054 6.19816 8.52418 6.17748 8.49902 6.15527C8.4623 6.12285 8.42468 6.09161 8.38672 6.06055C8.37403 6.05017 8.36127 6.03973 8.34863 6.0293C8.30752 5.99526 8.2667 5.96066 8.22461 5.92773C8.20033 5.9088 8.17617 5.88957 8.15234 5.87012C8.12248 5.84571 8.09219 5.82133 8.06152 5.79785C8.04084 5.78211 8.02045 5.76601 8 5.75C7.91788 5.68566 7.83414 5.62243 7.75 5.56055C7.74155 5.55434 7.73305 5.5482 7.72461 5.54199C7.64067 5.48005 7.55599 5.41831 7.46973 5.35938C7.46341 5.35507 7.4573 5.35086 7.45117 5.34668C7.37047 5.29131 7.28863 5.23733 7.20605 5.18457C7.19977 5.18056 7.1936 5.17675 7.1875 5.17285C7.09278 5.11229 6.99804 5.05082 6.90137 4.99316C6.89553 4.9897 6.88946 4.98677 6.88379 4.9834C6.791 4.92803 6.69692 4.87444 6.60156 4.82324C6.58169 4.81258 6.56175 4.80185 6.54199 4.79102C6.29853 4.65678 6.04637 4.5365 5.78906 4.42871C5.78053 4.42515 5.77195 4.42142 5.76367 4.41797C5.36296 4.25014 4.93863 4.10707 4.50488 4.04492C4.49729 4.04385 4.48979 4.04303 4.48242 4.04199C4.29094 4.01361 4.09726 3.99655 3.90332 4.00098C3.61521 4.00874 3.31891 4.05864 3.06152 4.18848C3.05649 4.19103 3.05176 4.19381 3.04688 4.19629C2.90968 4.26406 2.77787 4.34942 2.66992 4.45605C2.66465 4.4614 2.65942 4.46649 2.6543 4.47168C2.63865 4.48744 2.6227 4.50344 2.60742 4.51953C2.00064 5.72373 1.97818 6.32582 2.00879 6.9082C2.00922 6.91639 2.00837 6.91691 2.00879 6.9248C2.01588 7.05988 2.02442 7.1951 2.0332 7.33008C2.03363 7.33669 2.03376 7.34319 2.03418 7.34961C2.70885 13.959 2.91364 14.5373 3.24023 15.0723C3.24486 15.0798 3.24547 15.0795 3.25 15.0869C3.37071 15.2859 3.50762 15.4764 3.66113 15.6533C3.67432 15.6685 3.68732 15.6838 3.7002 15.6992C3.73466 15.7407 3.77169 15.7798 3.80957 15.8184C3.82625 15.8353 3.84334 15.8526 3.85938 15.8701C3.9126 15.9302 3.97263 15.9849 4.0332 16.0381C4.04973 16.0526 4.06671 16.0673 4.08301 16.082C4.12805 16.1231 4.17253 16.1645 4.2207 16.2021C4.2404 16.2172 4.26014 16.2324 4.2793 16.248C4.40576 16.352 4.53954 16.448 4.67773 16.5371C4.68273 16.5403 4.68753 16.5438 4.69238 16.5469C4.78206 16.6045 4.87343 16.6591 4.9668 16.7109C4.97342 16.7146 4.9799 16.7181 4.98633 16.7217C5.32142 16.909 5.68008 17.0601 6.04883 17.1748C6.05414 17.1765 6.05929 17.1781 6.06445 17.1797C6.58681 17.3422 7.1261 17.4422 7.67285 17.4893C7.67947 17.4898 7.68596 17.4897 7.69238 17.4902C7.9297 17.5109 8.16708 17.5184 8.40527 17.5176C8.4321 17.5175 8.4595 17.5166 8.48633 17.5166C8.62339 17.5166 8.76057 17.5172 8.89746 17.5098C8.90911 17.5091 8.92096 17.5084 8.93262 17.5078C8.96714 17.5061 9.00164 17.5041 9.03613 17.502C9.04226 17.5016 9.04874 17.5014 9.05469 17.501C9.23833 17.4893 9.23888 17.4896 9.60938 17.4502C9.61371 17.4497 9.61786 17.4487 9.62207 17.4482C8.07641 17.8244 7.48268 18.0303 6.93066 18.3135C6.92434 18.3167 6.91825 18.3201 6.91211 18.3232C6.60785 18.4792 6.31396 18.6541 6.0459 18.8633C6.03821 18.8693 6.03015 18.8748 6.02246 18.8809C5.98394 18.9106 5.94591 18.9409 5.90918 18.9727C5.89812 18.9824 5.88709 18.9923 5.87598 19.002C5.83942 19.0321 5.80366 19.064 5.76953 19.0967C5.76364 19.1024 5.75767 19.1078 5.75195 19.1133C5.63499 19.2261 5.52279 19.3423 5.42188 19.4688C5.4189 19.4725 5.41597 19.4768 5.41309 19.4805C5.04938 19.934 4.83856 20.4779 4.83789 21.0527C4.8379 21.0592 4.83789 21.066 4.83789 21.0723C4.83794 21.1404 4.83747 21.2084 4.84375 21.2764C4.84442 21.2828 4.84505 21.2896 4.8457 21.2959C4.89011 21.732 5.02962 22.169 5.25 22.5537C5.25906 22.5693 5.26845 22.585 5.27734 22.6006C5.36043 22.7469 5.44991 22.8881 5.54688 23.0264C5.56004 23.0451 5.57385 23.0642 5.58691 23.083C5.6431 23.1638 5.70266 23.2416 5.76465 23.3184C5.76898 23.3237 5.77314 23.3298 5.77734 23.335C5.85732 23.4343 5.94071 23.5311 6.02637 23.626C6.03149 23.6316 6.03209 23.6321 6.03711 23.6377C6.06998 23.6742 6.1041 23.7101 6.13867 23.7451C6.14307 23.7496 6.14709 23.7545 6.15137 23.7588C6.15581 23.7633 6.16073 23.7671 6.16504 23.7715C6.17377 23.7803 6.18185 23.7898 6.19043 23.7988C6.22824 23.8414 6.2684 23.8814 6.30957 23.9209C6.31729 23.9283 6.3253 23.936 6.33301 23.9434C6.34947 23.9592 6.36633 23.9754 6.38281 23.9912C6.40385 24.0114 6.42529 24.0315 6.44629 24.0518C6.53577 24.1379 6.62568 24.2241 6.71875 24.3066C6.72244 24.3099 6.7259 24.3132 6.72949 24.3164C6.74403 24.3293 6.75888 24.3426 6.77344 24.3555C6.79457 24.374 6.81594 24.3925 6.83691 24.4111C6.86896 24.4397 6.90162 24.4685 6.93457 24.4961C6.94874 24.5079 6.96265 24.5202 6.97656 24.5322C7.02254 24.5723 7.06991 24.6108 7.11719 24.6494C7.12135 24.6528 7.12487 24.6569 7.12891 24.6602C7.22227 24.7367 7.31724 24.8113 7.41406 24.8838C7.42582 24.8926 7.43755 24.9022 7.44922 24.9111C7.55372 24.9911 7.66183 25.0664 7.77148 25.1396C7.77698 25.1433 7.78178 25.1478 7.78711 25.1514C7.92737 25.2449 8.07053 25.3339 8.21777 25.417C8.22373 25.4203 8.22957 25.4235 8.23535 25.4268C8.94165 25.7867 9.51836 25.9871 10.123 25.998C10.1317 25.9982 10.1321 25.9979 10.1406 25.998C10.2235 25.9996 10.306 25.9983 10.3887 25.9932C10.3946 25.9928 10.4005 25.9926 10.4062 25.9922C10.855 25.9633 11.2851 25.8239 11.6738 25.6094C11.6785 25.6068 11.683 25.604 11.6875 25.6016C11.8605 25.5066 12.027 25.3964 12.1797 25.2734C12.1955 25.2607 12.2115 25.2478 12.2275 25.2354C12.2642 25.2072 12.2987 25.1773 12.333 25.1465C12.3531 25.1283 12.3737 25.1103 12.3945 25.0928C12.4227 25.0694 12.4502 25.0448 12.4766 25.0195C12.4833 25.013 12.4836 25.0132 12.4902 25.0068C12.5771 24.9231 12.6612 24.8361 12.7422 24.7471C12.755 24.7329 12.7681 24.719 12.7812 24.7051C12.8136 24.671 12.8448 24.6355 12.875 24.5996C12.8842 24.5886 12.8931 24.5773 12.9023 24.5664C13.1899 24.2283 13.4481 23.8643 13.667 23.4814C13.6831 23.4532 13.6992 23.4245 13.7158 23.3965C13.9228 23.0521 14.0972 22.6873 14.2607 22.3223C14.2643 22.3143 14.268 22.3066 14.2715 22.2988C14.4804 21.8331 14.6623 21.356 14.832 20.876C14.8607 20.7949 14.8893 20.7136 14.9189 20.6328C14.922 20.6245 14.9248 20.6164 14.9277 20.6084C14.9445 20.5624 14.9626 20.5187 14.9863 20.4756C14.9887 20.4869 14.9909 20.4978 14.9932 20.5088H15C15.0047 20.4975 15.0101 20.4866 15.0146 20.4756C15.0797 20.5893 15.0791 20.5896 15.1143 20.7207C15.1258 20.7539 15.1377 20.7872 15.1494 20.8203C15.152 20.8276 15.1547 20.8347 15.1572 20.8418C15.2501 21.1055 15.346 21.3685 15.4482 21.6289C15.4506 21.6348 15.4528 21.6408 15.4551 21.6465C15.586 21.9797 15.724 22.3118 15.8828 22.6338C15.8933 22.6549 15.9039 22.676 15.9141 22.6973C16.0003 22.8788 16.0913 23.059 16.1924 23.2334C16.2063 23.2573 16.2199 23.2816 16.2334 23.3057C16.4606 23.7127 16.7177 24.1061 17.0146 24.4697C17.026 24.4836 17.0376 24.4977 17.0488 24.5117C17.0806 24.5512 17.1125 24.59 17.1475 24.627C17.1629 24.6431 17.1779 24.6598 17.1924 24.6768C17.2237 24.7144 17.2566 24.7501 17.291 24.7852C17.3112 24.8056 17.3313 24.8265 17.3506 24.8477C17.3759 24.8759 17.4023 24.9033 17.4297 24.9297C17.4347 24.9345 17.4404 24.9396 17.4453 24.9443C17.4881 24.9853 17.5315 25.0254 17.5762 25.0645C17.5872 25.074 17.5985 25.084 17.6094 25.0938C17.6631 25.142 17.7181 25.1889 17.7744 25.2344C17.7788 25.2379 17.7828 25.2417 17.7871 25.2451C18.4241 25.7397 19.1254 26.0193 19.8379 25.999C19.843 25.9989 19.8485 25.9982 19.8535 25.998C20.4026 25.9827 20.9356 25.8366 21.4248 25.5996C21.4372 25.5936 21.4505 25.588 21.4629 25.582C21.7431 25.4469 22.0112 25.29 22.2666 25.1152C22.2722 25.1114 22.2777 25.1073 22.2832 25.1035C22.3484 25.0589 22.4133 25.014 22.4766 24.9668C22.489 24.9575 22.5021 24.9477 22.5146 24.9385C22.5645 24.9022 22.6142 24.8658 22.6621 24.8271C22.687 24.8069 22.7125 24.7868 22.7383 24.7676C22.7867 24.7315 22.8338 24.6941 22.8799 24.6553C22.9015 24.637 22.9234 24.6186 22.9453 24.6006C22.9577 24.5904 22.971 24.5805 22.9834 24.5703C22.9905 24.5645 22.9968 24.5576 23.0039 24.5518C23.0397 24.5223 23.0749 24.4918 23.1094 24.4609C23.131 24.4415 23.1526 24.4221 23.1748 24.4033C23.198 24.3841 23.2207 24.3647 23.2422 24.3438C23.2547 24.3313 23.2675 24.3189 23.2812 24.3076C23.322 24.2743 23.3597 24.2384 23.3975 24.2021C23.4052 24.1947 23.4131 24.1871 23.4209 24.1797C23.4374 24.1639 23.4542 24.1477 23.4707 24.1318C23.4917 24.1117 23.5132 24.0914 23.5342 24.0713C23.6367 23.973 23.7406 23.8754 23.8359 23.7705C23.8551 23.7493 23.8744 23.7284 23.8945 23.708C23.9271 23.6749 23.9593 23.6418 23.9893 23.6064C24.0086 23.5832 24.0287 23.5598 24.0488 23.5371C24.0743 23.5084 24.0996 23.4797 24.124 23.4502C24.1367 23.4349 24.1492 23.4194 24.1621 23.4043C24.2207 23.3362 24.2771 23.2659 24.3311 23.1943C24.3348 23.1894 24.3382 23.1845 24.3418 23.1797L24.4121 23.0859C24.5403 22.9113 24.6567 22.7289 24.7568 22.5381C24.7631 22.5261 24.7634 22.5255 24.7695 22.5137C24.8355 22.3878 24.8979 22.2615 24.9482 22.1289C24.9515 22.1203 24.9549 22.1119 24.958 22.1035C25.1156 21.6824 25.2059 21.2316 25.1494 20.7832C25.1486 20.777 25.1483 20.7707 25.1475 20.7646C25.107 20.4505 25.0082 20.1437 24.8486 19.8662C24.8454 19.8607 24.842 19.855 24.8389 19.8496C24.728 19.6583 24.5985 19.4801 24.4482 19.3154C24.4409 19.3075 24.4331 19.3 24.4258 19.292C24.3939 19.2562 24.3608 19.2218 24.3262 19.1885C24.3171 19.1798 24.3174 19.1793 24.3086 19.1709C24.2677 19.1314 24.2259 19.0927 24.1826 19.0557C24.1735 19.0479 24.1643 19.0401 24.1553 19.0322C24.0771 18.9626 23.9964 18.8957 23.9121 18.833C23.8991 18.8233 23.886 18.8134 23.873 18.8037C23.7983 18.7477 23.7217 18.6941 23.6436 18.6426C23.6383 18.6391 23.633 18.6362 23.6279 18.6328C23.5143 18.5578 23.3975 18.4852 23.2764 18.4219C23.2545 18.4105 23.2325 18.3986 23.2109 18.3867C23.104 18.3274 22.9949 18.2724 22.8838 18.2207C22.8777 18.2179 22.8772 18.2177 22.8711 18.2148C21.8 17.7697 21.1002 17.5892 20.3965 17.4531C20.388 17.4515 20.3793 17.4498 20.3711 17.4482C20.4988 17.4624 20.6268 17.4757 20.7549 17.4863C20.7688 17.4875 20.7829 17.4881 20.7969 17.4893C21.041 17.5099 21.2853 17.5184 21.5303 17.5176C21.5569 17.5175 21.5837 17.5166 21.6104 17.5166C21.7402 17.5166 21.8703 17.5176 22 17.5107C22.0103 17.5102 22.0209 17.5094 22.0312 17.5088C24.1307 17.1469 24.7278 16.9098 25.2705 16.5713C25.2762 16.5678 25.2816 16.564 25.2871 16.5605C25.3573 16.517 25.4252 16.4708 25.4922 16.4229C25.5083 16.4113 25.5248 16.3992 25.541 16.3877C25.5942 16.3501 25.6462 16.3119 25.6963 16.2705C25.7131 16.2566 25.7298 16.2428 25.7471 16.2295C25.7909 16.1959 25.8323 16.16 25.873 16.123C25.8907 16.1071 25.9086 16.0916 25.9268 16.0762C25.987 16.0269 26.0414 15.971 26.0947 15.915C26.1095 15.8995 26.1247 15.8845 26.1396 15.8691C26.2888 15.7172 26.4273 15.5552 26.5518 15.3838C26.555 15.3793 26.5584 15.3745 26.5615 15.3701C26.7206 15.1527 26.856 14.9234 26.9727 14.6826C26.9772 14.6732 26.978 14.6723 26.9824 14.6631C27.0666 14.4905 27.14 14.3131 27.2012 14.1318C27.2027 14.1273 27.2046 14.1226 27.2061 14.1182C27.8855 8.48531 27.9277 7.93084 27.9639 7.37598C27.9669 7.32876 27.9704 7.28158 27.9736 7.23438C27.9897 6.9994 27.9998 6.76482 28 6.5293C28 6.52348 28 6.51736 28 6.51172C27.9963 5.80571 27.8876 5.1098 27.4814 4.61914C27.4733 4.60953 27.4729 4.60921 27.4648 4.59961C27.3756 4.48992 27.2686 4.39434 27.1514 4.3125C27.1438 4.30741 27.1362 4.30182 27.1289 4.29688C26.795 4.06797 26.3742 3.99259 25.9707 4.00098C25.9616 4.00119 25.9611 4.00077 25.9521 4.00098Z" fill="#242424"/>
</svg>
