<svg width="30" height="30" viewBox="0 0 30 30" fill="none" xmlns="http://www.w3.org/2000/svg">
<path d="M23 0C26.866 2.57702e-07 30 3.13401 30 7V23C30 26.866 26.866 30 23 30H7C3.13401 30 1.61069e-08 26.866 0 23V7C2.57711e-07 3.13401 3.13401 1.61064e-08 7 0H23ZM22.627 2C22.6375 2.28025 22.6479 2.56053 22.6572 2.84082C22.6614 2.96638 22.6652 3.09223 22.6699 3.21777C22.7046 4.12131 22.7112 5.02462 22.7119 5.92871C22.712 6.02607 22.7118 6.12433 22.7119 6.22168C22.3439 11.9646 21.903 13.9313 20.625 15.3994C20.6075 15.4194 20.5895 15.4398 20.5723 15.46C20.4653 15.5921 20.3558 15.7174 20.2344 15.8369C20.2061 15.8644 20.1777 15.8923 20.1494 15.9199C19.931 16.1334 19.7077 16.3389 19.4707 16.5322C19.4588 16.5419 19.4471 16.5512 19.4355 16.5605C19.2527 16.7098 19.0668 16.8549 18.876 16.9941C18.8371 17.0225 18.7982 17.0511 18.7598 17.0801C18.5332 17.2521 18.2977 17.4089 18.0586 17.5635C18.0385 17.5764 18.0185 17.589 17.999 17.6016C17.8982 17.6667 17.7976 17.7325 17.6963 17.7969C17.6644 17.8171 17.6325 17.8372 17.6006 17.8574C17.3257 18.0337 17.0459 18.2183 16.7285 18.3115C16.7061 18.3174 16.6839 18.3234 16.6621 18.3291C16.2238 18.4494 15.7389 18.4472 15.2939 18.3584C15.2699 18.3535 15.2697 18.3535 15.2461 18.3486C14.2635 18.0991 14.2631 18.0986 13.3145 17.7402C12.9838 17.6153 12.6518 17.4955 12.3174 17.3809C12.3026 17.3758 12.2878 17.3711 12.2734 17.3662C12.2935 17.3262 12.3145 17.2864 12.3359 17.2471C12.3442 17.2322 12.3523 17.2176 12.3604 17.2031C12.3698 17.186 12.3785 17.1689 12.3877 17.1523C12.4781 16.9899 12.5681 16.8272 12.6572 16.6641C12.7553 16.4844 12.8538 16.305 12.9531 16.126C13.0577 15.9375 13.1619 15.7484 13.2656 15.5596C13.3199 15.4609 13.3744 15.3624 13.4287 15.2637C13.4503 15.2244 13.4716 15.1848 13.4932 15.1455C13.5041 15.1256 13.5148 15.1063 13.5254 15.0869C13.5686 15.0083 13.6121 14.9292 13.6553 14.8506C13.6768 14.8115 13.6982 14.7725 13.7197 14.7334C13.7739 14.6349 13.8287 14.536 13.8828 14.4375C13.9877 14.2466 14.0926 14.0557 14.1982 13.8652C14.2955 13.6899 14.3922 13.5139 14.4883 13.3379C14.5646 13.198 14.6415 13.0583 14.7188 12.9189C14.8035 12.7663 14.8871 12.6131 14.9707 12.46C15.069 12.2799 15.1681 12.1003 15.2676 11.9209C15.3941 11.6928 15.5199 11.464 15.6455 11.2354C15.6782 11.1759 15.7105 11.1161 15.7432 11.0566C15.7596 11.0267 15.7602 11.0265 15.7764 10.9971C15.8287 10.9017 15.8808 10.806 15.9336 10.7109C15.9525 10.6769 15.9713 10.6425 15.9902 10.6084C15.9999 10.591 16.0101 10.5745 16.0195 10.5576C16.0836 10.4424 16.1466 10.3261 16.209 10.21C16.2168 10.1954 16.2248 10.1811 16.2324 10.167C16.2708 10.0956 16.3095 10.0237 16.3477 9.95215C16.362 9.92516 16.3762 9.89805 16.3906 9.87109C16.3976 9.85817 16.4044 9.84555 16.4111 9.83301C16.4502 9.75939 16.4899 9.689 16.543 9.62402C16.6198 9.8044 16.7005 9.98278 16.7842 10.1602C16.9142 10.4353 17.0434 10.7107 17.168 10.9883C17.267 11.2091 17.3667 11.4298 17.4707 11.6484C17.5364 11.7864 17.6016 11.925 17.6641 12.0645C17.6715 12.081 17.6784 12.0972 17.6855 12.1133C17.722 12.1947 17.7589 12.2768 17.7949 12.3584C17.8084 12.389 17.8223 12.4196 17.8359 12.4502C17.8424 12.4647 17.8482 12.4791 17.8545 12.4932C17.8814 12.5547 17.8956 12.6191 17.959 12.6504C17.973 12.5713 17.9848 12.4918 17.9951 12.4121C17.9981 12.3889 17.9981 12.3886 18.001 12.3662C18.0077 12.3136 18.0148 12.2606 18.0215 12.208C18.0264 12.1694 18.0312 12.1304 18.0361 12.0918C18.0525 11.9643 18.0686 11.8365 18.085 11.709C18.0907 11.6644 18.0968 11.6198 18.1025 11.5752C18.1293 11.3663 18.1559 11.1571 18.1826 10.9482C18.2136 10.7056 18.2452 10.4624 18.2764 10.2197C18.3006 10.0307 18.3245 9.84143 18.3486 9.65234C18.363 9.53972 18.3771 9.42706 18.3916 9.31445C18.4054 9.20718 18.419 9.09948 18.4326 8.99219C18.4377 8.95231 18.4432 8.91195 18.4482 8.87207C18.477 8.64986 18.5033 8.42883 18.5156 8.20508C18.5169 8.1776 18.5163 8.17728 18.5176 8.15039C18.7075 8.15438 18.8949 8.14366 19.084 8.12793C19.1178 8.12511 19.1517 8.12286 19.1855 8.12012C19.2783 8.11263 19.3711 8.10435 19.4639 8.09668C19.5425 8.09017 19.6216 8.08358 19.7002 8.07715C19.8853 8.062 20.0708 8.04755 20.2559 8.03223C20.4479 8.01632 20.6399 7.99998 20.832 7.98438C20.9987 7.97084 21.1654 7.95712 21.332 7.94336C21.4311 7.93516 21.5308 7.92699 21.6299 7.91895C21.7243 7.91131 21.8187 7.9034 21.9131 7.89551C21.9479 7.89258 21.9828 7.88961 22.0176 7.88672C22.0661 7.88285 22.1146 7.87911 22.1631 7.875C22.178 7.87373 22.1926 7.87233 22.207 7.87109C22.293 7.86401 22.3362 7.86371 22.4082 7.81641C22.2773 7.75217 22.1464 7.68737 22.0156 7.62305C21.9484 7.59001 21.8807 7.55741 21.8135 7.52441C21.7481 7.49233 21.6825 7.45988 21.6172 7.42773C21.5918 7.41526 21.5664 7.40309 21.541 7.39062C21.3999 7.32146 21.2594 7.25133 21.1201 7.17871C20.9026 7.06518 20.6822 6.95589 20.4619 6.84766C20.4188 6.82647 20.3761 6.80441 20.333 6.7832C20.2191 6.72714 20.1051 6.67123 19.9912 6.61523C19.8734 6.55734 19.7555 6.49935 19.6377 6.44141C19.3942 6.3216 19.1508 6.20175 18.9072 6.08203C18.897 6.077 18.8869 6.07227 18.877 6.06738C18.8748 6.01175 18.8744 6.01133 18.8848 5.9707C18.8888 5.95602 18.8936 5.94199 18.8975 5.92773C18.9021 5.91049 18.9066 5.89369 18.9111 5.87695C18.9164 5.85772 18.9216 5.83898 18.9268 5.82031C18.9383 5.77786 18.9494 5.73483 18.9609 5.69238C18.9842 5.60737 19.0081 5.52255 19.0312 5.4375C19.0384 5.4112 19.0456 5.38469 19.0527 5.3584C19.0565 5.34437 19.0598 5.33003 19.0635 5.31641C19.0752 5.27313 19.0869 5.2298 19.0986 5.18652C19.2065 4.79018 19.3146 4.39359 19.4219 3.99707C19.4611 3.85194 19.4997 3.70663 19.5391 3.56152C19.5644 3.46798 19.5899 3.37383 19.6152 3.28027C19.6272 3.23598 19.6394 3.19175 19.6514 3.14746C19.7229 2.8837 19.7931 2.61977 19.8545 2.35352C19.8146 2.35352 19.8141 2.35394 19.7617 2.4043C19.7282 2.43852 19.6944 2.47145 19.6582 2.50293C19.5992 2.5525 19.5416 2.60254 19.4863 2.65625C19.4234 2.71896 19.3616 2.78302 19.2949 2.8418C19.219 2.9057 19.1464 2.97101 19.0762 3.04102C19.0301 3.08696 18.9844 3.13273 18.9355 3.17578C18.8598 3.23957 18.7879 3.30514 18.7178 3.375C18.6717 3.42097 18.6251 3.4667 18.5762 3.50977C18.5003 3.57367 18.4286 3.63995 18.3584 3.70996C18.3125 3.75577 18.2665 3.80082 18.2178 3.84375C18.1419 3.90767 18.0693 3.97391 17.999 4.04395C17.9531 4.08975 17.9071 4.13481 17.8584 4.17773C17.7825 4.24166 17.7099 4.3079 17.6396 4.37793C17.5957 4.42242 17.5513 4.46591 17.5039 4.50684C17.4047 4.5909 17.312 4.67919 17.2207 4.77148C17.1206 4.87321 17.0201 4.96428 16.9023 5.0459C16.7576 4.9525 16.6108 4.86189 16.4629 4.77344C16.3037 4.67844 16.1451 4.58263 15.9873 4.48535C15.7994 4.36925 15.6109 4.25405 15.4219 4.13965C15.2837 4.05601 15.1457 3.97185 15.0078 3.8877C14.8362 3.78291 14.6642 3.67832 14.4922 3.57422C14.3702 3.50047 14.2481 3.42668 14.127 3.35156C14.1155 3.34446 14.1039 3.33795 14.0928 3.33105C14.0495 3.30426 14.0061 3.27683 13.9629 3.25C13.9326 3.23107 13.9322 3.23061 13.9023 3.21191C13.8835 3.2002 13.865 3.1891 13.8467 3.17773C13.783 3.13798 13.7211 3.10696 13.6504 3.08105C13.6504 3.13968 13.6508 3.13973 13.6719 3.19629C13.6871 3.23179 13.6873 3.23185 13.7021 3.2666C13.72 3.30842 13.7369 3.35082 13.7549 3.39258C13.7681 3.42324 13.7818 3.45368 13.7949 3.48438C13.8233 3.55096 13.8514 3.61802 13.8799 3.68457C13.9513 3.8515 14.0221 4.0193 14.0928 4.18652C14.1348 4.28594 14.1777 4.38498 14.2197 4.48438C14.2798 4.62635 14.3394 4.76915 14.3994 4.91113C14.6256 5.44624 14.8526 5.98101 15.0801 6.51562C15.0935 6.54715 15.0934 6.54739 15.1064 6.57812C15.0667 6.57813 15.0668 6.57888 15.0293 6.6084C15.0141 6.62211 14.9991 6.63513 14.9844 6.64844C14.9597 6.67057 14.9597 6.67071 14.9355 6.69238C14.9069 6.71809 14.8778 6.74343 14.8486 6.76855C14.7898 6.81858 14.731 6.87006 14.6738 6.92188C14.5424 7.04157 14.4087 7.1581 14.2725 7.27246C14.1752 7.35395 14.0785 7.43549 13.9854 7.52148C13.8789 7.61982 13.7731 7.71754 13.6592 7.80762C13.5779 7.87173 13.5008 7.93881 13.4248 8.00879C13.3109 8.11373 13.193 8.21493 13.0742 8.31445C12.9814 8.39211 12.8894 8.4705 12.7998 8.55176C12.6683 8.67145 12.5338 8.78796 12.3975 8.90234C12.3366 8.95338 12.2758 9.0055 12.2158 9.05762C12.2017 9.06997 12.1875 9.08176 12.1738 9.09375C12.1425 9.12103 12.1112 9.14829 12.0801 9.17578C12.0689 9.18565 12.0577 9.1955 12.0469 9.20508C11.9824 9.26123 11.9307 9.31064 11.8945 9.38867C12.2659 9.33828 12.6374 9.2876 13.0088 9.2373C13.1897 9.2128 13.3708 9.18862 13.5518 9.16406C13.7103 9.14255 13.8688 9.12107 14.0273 9.09961C14.1116 9.08821 14.1961 9.07589 14.2803 9.06445C14.6682 9.01171 15.0562 8.96095 15.4453 8.91699C15.4081 8.98106 15.3709 9.04558 15.335 9.11035C15.325 9.12862 15.3153 9.14633 15.3057 9.16406C15.2943 9.185 15.2826 9.20527 15.2715 9.22559C15.2409 9.28182 15.2104 9.33834 15.1797 9.39453C15.1732 9.40639 15.1674 9.41818 15.1611 9.42969C15.1065 9.52981 15.0514 9.62973 14.9961 9.72949C14.9115 9.88192 14.8267 10.0345 14.7432 10.1875C14.645 10.3674 14.5467 10.5473 14.4473 10.7266C14.3427 10.915 14.2385 11.1041 14.1348 11.293C14.0805 11.3917 14.026 11.4902 13.9717 11.5889C13.9501 11.6281 13.9288 11.6678 13.9072 11.707C13.8909 11.7367 13.8909 11.7368 13.875 11.7656C13.7453 12.0014 13.615 12.2378 13.4854 12.4736C13.4639 12.5127 13.4424 12.5518 13.4209 12.5908C13.3668 12.6893 13.3129 12.7882 13.2588 12.8867C13.1538 13.0778 13.0481 13.2684 12.9424 13.459C12.8451 13.6343 12.7484 13.8104 12.6523 13.9863C12.5661 14.1444 12.4799 14.3025 12.3926 14.46C12.288 14.6484 12.1838 14.8375 12.0801 15.0264C12.0259 15.1251 11.9713 15.2236 11.917 15.3223C11.8954 15.3615 11.8741 15.4012 11.8525 15.4404C11.8416 15.4603 11.8309 15.4797 11.8203 15.499C11.546 15.9979 11.2714 16.4972 10.9971 16.9961C10.9904 17.0083 10.984 17.0204 10.9775 17.0322C9.12055 16.9677 7.39941 17.6666 6.01953 18.3438C5.98896 18.3588 5.9584 18.3738 5.92773 18.3887C5.86527 18.4188 5.80226 18.4495 5.74023 18.4805C5.71039 18.4954 5.68023 18.5104 5.65039 18.5254C5.14879 18.7755 4.66004 19.0427 4.18457 19.3389C4.15936 19.3546 4.15932 19.3548 4.13477 19.3701C3.89071 19.5223 3.65223 19.6805 3.41992 19.8496C3.40541 19.8602 3.39104 19.8706 3.37695 19.8809C3.23549 19.9831 3.09169 20.0837 2.96094 20.1992C2.91889 20.2375 2.87713 20.2748 2.83203 20.3096C2.52106 20.5474 2.25086 20.8411 2 21.1387C2.0399 21.178 2.04026 21.178 2.08984 21.1836C2.12162 21.1841 2.12194 21.184 2.15332 21.1846C2.17789 21.1851 2.20174 21.186 2.22559 21.1865C2.29455 21.1877 2.36367 21.1895 2.43262 21.1914C2.45478 21.192 2.45485 21.1918 2.47656 21.1924C4.11506 21.2365 5.77131 21.4228 7.34863 21.873C7.37497 21.8806 7.3753 21.8802 7.40137 21.8877C7.65992 21.9615 7.91248 22.0463 8.16406 22.1406C8.15111 22.1661 8.1378 22.1917 8.12402 22.2168C8.11559 22.232 8.1078 22.247 8.09961 22.2617C8.08993 22.2792 8.07971 22.2965 8.07031 22.3135C7.93979 22.5487 7.80997 22.7847 7.68066 23.0205C7.66881 23.0421 7.65702 23.063 7.64551 23.084C7.48864 23.3701 7.33088 23.6557 7.18652 23.9482C7.40223 24.0665 7.61909 24.1834 7.83691 24.2979C7.86571 24.313 7.89504 24.3277 7.92383 24.3428C7.96572 24.3648 8.00787 24.3872 8.0498 24.4092C8.06304 24.4161 8.07601 24.423 8.08887 24.4297C8.16571 24.4702 8.2425 24.5079 8.32422 24.5381C8.3945 24.4114 8.46441 24.2842 8.53418 24.1572C8.60003 24.0373 8.66599 23.9175 8.73242 23.7979C8.8514 23.5843 8.96893 23.3694 9.08496 23.1543C9.10134 23.1239 9.11838 23.0939 9.13477 23.0635C9.15844 23.0197 9.18149 22.9755 9.20508 22.9316C9.21256 22.9177 9.22028 22.9041 9.22754 22.8906C9.26281 22.8254 9.2972 22.7606 9.32617 22.6924C9.33138 22.6787 9.33576 22.6647 9.34082 22.6514C9.45224 22.6975 9.55902 22.7497 9.66406 22.8086C9.68124 22.8184 9.69817 22.8274 9.71484 22.8369C10.3586 23.2024 10.9698 23.6183 11.5303 24.0996C11.5972 24.1574 11.6645 24.215 11.7334 24.2705C11.8338 24.3499 11.9305 24.432 12.0244 24.5186C12.103 24.591 12.1828 24.661 12.2666 24.7275C12.3217 24.7711 12.3761 24.8148 12.4287 24.8613C12.5176 24.942 12.6064 25.0216 12.7002 25.0967C12.7587 25.1432 12.8169 25.1903 12.874 25.2383C13.3613 25.6486 13.8778 26.0179 14.4531 26.2998C14.4717 26.3088 14.4898 26.3174 14.5078 26.3262C14.7488 26.4444 14.9928 26.5488 15.248 26.6338C17.9482 27.2008 19.8482 27.1175 21.4756 26.3242C21.5133 26.3055 21.5509 26.2868 21.5889 26.2686C22.071 26.0383 22.5336 25.7704 22.9629 25.4541C22.9776 25.4432 22.9925 25.4334 23.0068 25.4229C23.1905 25.2878 23.3708 25.1498 23.5449 25.0029C23.5649 24.9858 23.5845 24.9683 23.6045 24.9512C23.7361 24.8427 23.8581 24.7247 23.9795 24.6055C24.0188 24.5668 24.0582 24.5278 24.0977 24.4893C24.2554 24.3354 24.4073 24.1784 24.5498 24.0107C24.5866 23.9672 24.6237 23.9239 24.6611 23.8809C26.5586 20.4769 26.8126 18.6004 26.9482 16.9141C26.9508 16.8813 26.9535 16.8482 26.9561 16.8154C26.9945 16.3466 26.9998 15.8783 27 15.4082C27 15.3925 27 15.3765 27 15.3613C27.0003 15.0085 26.9993 14.6561 26.9785 14.3037C26.9777 14.2896 26.9774 14.2754 26.9766 14.2617C26.8093 12.0642 26.4004 10.2111 25.7734 8.42578C25.7687 8.41237 25.7643 8.39876 25.7598 8.38574C25.7029 8.2241 25.6446 8.06299 25.585 7.90234C25.5766 7.87983 25.5677 7.85779 25.5596 7.83594C25.337 7.23863 25.0944 6.64819 24.8262 6.06934C24.7936 5.99928 24.7612 5.92881 24.7295 5.8584C24.4257 5.18102 24.0894 4.51634 23.7295 3.86621C23.6967 3.80719 23.6643 3.74771 23.6318 3.68848C23.4352 3.32816 23.2372 2.96813 23.0254 2.61621C22.8545 2.32748 22.8537 2.3276 22.6875 2.03613C22.6805 2.02391 22.6738 2.01187 22.667 2H22.627ZM17.7793 20.4512C17.8043 20.5086 17.8042 20.5086 17.7881 20.5635C17.7817 20.5854 17.7758 20.6067 17.7695 20.6279C17.759 20.6646 17.7593 20.6652 17.749 20.7012C17.6042 21.2001 17.4529 21.7835 17.5889 22.3008C17.7719 22.8974 18.3284 23.2454 18.8574 23.5283C18.951 23.5771 19.0354 23.6247 19.1162 23.6934C19.0449 23.6853 18.9741 23.6769 18.9033 23.665C18.6227 23.6162 18.3482 23.5866 18.0635 23.585H17.8379C17.7786 23.5861 17.7194 23.5886 17.6602 23.5947C17.0598 23.6885 16.7133 24.0715 16.3672 24.5273C16.3541 24.5446 16.3408 24.5614 16.3281 24.5781C16.302 24.6126 16.276 24.6471 16.25 24.6816C16.1262 24.8475 15.995 25.0041 15.8447 25.1475C15.8545 25.0588 15.8723 24.9742 15.8945 24.8877C15.9997 24.481 16.088 24.0767 16.0645 23.6543C16.0214 23.2254 15.8322 22.8803 15.501 22.5986C15.4822 22.5833 15.4635 22.5686 15.4453 22.5537C15.296 22.4297 15.1432 22.3198 14.9756 22.2207C14.8813 22.166 14.7916 22.1132 14.708 22.043C14.9454 22.0562 15.1831 22.064 15.4209 22.0654C15.4495 22.0655 15.4782 22.0663 15.5068 22.0664C15.6129 22.0674 15.7191 22.0672 15.8252 22.0625C16.3451 22.0111 16.8192 21.7989 17.1611 21.4033C17.1813 21.3791 17.1814 21.3783 17.2012 21.3545C17.4319 21.0871 17.6023 20.7963 17.7627 20.4844C17.7712 20.4677 17.771 20.4673 17.7793 20.4512ZM24.9014 13.5938C24.9028 13.6469 24.9011 13.6971 24.8945 13.75C24.8461 14.0653 24.8143 14.3771 24.8135 14.6963C24.8135 14.7131 24.8135 14.7298 24.8135 14.7461C24.8129 14.8237 24.8128 14.9019 24.8145 14.9795C24.8304 15.4016 25.0208 15.7738 25.3281 16.0615C25.3458 16.0773 25.3628 16.0931 25.3799 16.1084C25.418 16.1427 25.4568 16.177 25.4961 16.21C25.518 16.2282 25.5184 16.2281 25.54 16.2461C25.6797 16.3656 25.821 16.4804 25.9697 16.5889C26.0511 16.6474 26.1293 16.7033 26.1982 16.7764C26.146 16.7777 26.0968 16.7765 26.0449 16.7695C25.6002 16.6935 25.1604 16.6447 24.7217 16.7764C24.1278 16.9962 23.7912 17.5315 23.5137 18.0625C23.5034 18.0824 23.4933 18.1017 23.4834 18.1211C23.4737 18.1399 23.4645 18.1585 23.4551 18.1768C23.4234 18.2391 23.3896 18.2938 23.3457 18.3486C23.4276 17.7955 23.5038 17.2489 23.3652 16.6982C23.2184 16.2208 22.862 15.8727 22.4365 15.623C22.3625 15.5797 22.2946 15.5345 22.2285 15.4795C22.3267 15.4776 22.4244 15.4787 22.5225 15.4844C22.8653 15.5079 23.2128 15.5234 23.5449 15.4209C24.1248 15.1886 24.1248 15.1884 24.8535 13.6523C24.863 13.6324 24.8727 13.6131 24.8818 13.5938H24.9014ZM18.3379 4.98633C18.3553 5.0357 18.3575 5.06867 18.3516 5.12109C18.3452 5.15428 18.3451 5.15497 18.3389 5.1875C18.3317 5.22558 18.3248 5.26372 18.3174 5.30176C18.312 5.32906 18.307 5.35646 18.3018 5.38379C18.288 5.45627 18.2738 5.52913 18.2598 5.60156C18.237 5.71922 18.2148 5.83736 18.1924 5.95508C18.1845 5.99647 18.176 6.03774 18.168 6.0791C18.1333 6.25792 18.1036 6.43676 18.0791 6.61719C18.5259 6.86276 18.976 7.10225 19.4277 7.33887C19.4519 7.35151 19.4519 7.35184 19.4756 7.36426C19.4688 7.37758 19.4616 7.39039 19.4551 7.40332C19.4217 7.41028 19.3883 7.41711 19.3545 7.42188C19.3396 7.42378 19.325 7.42589 19.3105 7.42773C19.2624 7.43436 19.2142 7.44091 19.166 7.44727C19.1314 7.45183 19.0961 7.45624 19.0615 7.46094C18.9711 7.4733 18.8805 7.48596 18.79 7.49805C18.6419 7.51782 18.4938 7.53749 18.3457 7.55762C18.2937 7.56469 18.2415 7.57218 18.1895 7.5791C18.1565 7.58349 18.1228 7.58734 18.0898 7.5918C18.0669 7.5949 18.0666 7.59557 18.0439 7.59863C17.9955 7.60496 17.9476 7.61203 17.8994 7.62012C17.8774 7.64181 17.8773 7.642 17.8574 7.75586C17.8545 7.77301 17.8515 7.78999 17.8486 7.80664C17.8423 7.84301 17.8354 7.87965 17.8291 7.91602C17.8188 7.97582 17.8092 8.03592 17.7988 8.0957C17.7691 8.26626 17.7394 8.43681 17.71 8.60742C17.6916 8.714 17.6729 8.82119 17.6543 8.92773C17.6473 8.96802 17.6408 9.00854 17.6338 9.04883C17.6238 9.10712 17.6137 9.16538 17.6035 9.22363C17.6003 9.24177 17.5968 9.25974 17.5938 9.27734C17.5805 9.35627 17.5798 9.42777 17.5205 9.48633C17.4852 9.40454 17.4495 9.32294 17.4141 9.24121C17.4074 9.22579 17.401 9.21028 17.3945 9.19531C17.3125 9.00598 17.2292 8.81713 17.1445 8.62891C17.1357 8.60939 17.1277 8.59023 17.1191 8.57129C17.0768 8.47722 17.0339 8.38301 16.9912 8.28906C16.9751 8.25364 16.9594 8.21807 16.9434 8.18262C16.9318 8.15712 16.9312 8.15683 16.9199 8.13184C16.8715 8.02594 16.8292 7.92015 16.793 7.80957C16.7895 7.79865 16.7856 7.78795 16.7822 7.77734C16.7215 7.79383 16.6599 7.80373 16.5977 7.81348C16.5837 7.81563 16.5702 7.81823 16.5566 7.82031C16.5105 7.82751 16.4642 7.83466 16.418 7.8418C16.3847 7.84693 16.3507 7.85228 16.3174 7.85742C16.2478 7.86819 16.178 7.87894 16.1084 7.88965C16.0182 7.90351 15.928 7.91761 15.8379 7.93164C15.7676 7.94258 15.6973 7.95305 15.627 7.96387C15.5932 7.96905 15.5591 7.9743 15.5254 7.97949C15.3195 8.01163 15.1156 8.04022 14.9072 8.05176V8.03223C14.9315 8.00882 14.9564 7.98558 14.9814 7.96289C14.9921 7.95333 15.0023 7.94385 15.0127 7.93457C15.0747 7.8788 15.1375 7.82324 15.2021 7.77051C15.3018 7.69156 15.3988 7.61142 15.4922 7.52539C15.606 7.42054 15.7231 7.32014 15.8418 7.2207C15.8903 7.18015 15.9383 7.13877 15.9863 7.09766C16.0218 7.06646 16.0582 7.03589 16.0947 7.00586C16.1172 6.98742 16.139 6.96798 16.1611 6.94922C16.1726 6.93952 16.1842 6.93031 16.1953 6.9209C16.238 6.88667 16.2682 6.85722 16.3037 6.81445C16.299 6.75192 16.2852 6.7002 16.2627 6.6416C16.2537 6.62215 16.2451 6.60286 16.2363 6.58398C16.2261 6.56171 16.216 6.54018 16.2061 6.51855C16.1893 6.4826 16.1719 6.44619 16.1553 6.41016C16.1185 6.33009 16.0821 6.24982 16.0449 6.16992C16.0347 6.14788 16.0345 6.14759 16.0244 6.12598C16.0102 6.09538 15.9957 6.06477 15.9814 6.03418C15.9669 6.0029 15.9521 5.97171 15.9375 5.94043C15.9017 5.86343 15.8661 5.78589 15.8301 5.70898C15.8165 5.68002 15.8026 5.65105 15.7891 5.62207C15.7826 5.6082 15.7758 5.59451 15.7695 5.58105C15.7294 5.49585 15.6936 5.4101 15.665 5.32031C15.707 5.31738 15.7072 5.31772 15.748 5.3418C15.7663 5.35198 15.784 5.36218 15.8018 5.37207C15.8223 5.38344 15.8424 5.39424 15.8623 5.40527C15.8845 5.4177 15.9062 5.43032 15.9277 5.44238C15.9969 5.48081 16.0667 5.51903 16.1357 5.55762C16.2174 5.60325 16.2992 5.64874 16.3809 5.69434C16.3998 5.70491 16.4181 5.71532 16.4365 5.72559C16.6566 5.84849 16.879 5.96832 17.1016 6.08691C17.1845 6.03061 17.2614 5.97298 17.335 5.90527C17.3568 5.88488 17.3794 5.86498 17.4014 5.84473C17.4131 5.83396 17.4242 5.82295 17.4355 5.8125C17.4737 5.77731 17.512 5.7425 17.5508 5.70801C17.6525 5.61873 17.7532 5.52827 17.8525 5.43652C17.9171 5.37689 17.9815 5.31646 18.0479 5.25879C18.1375 5.18301 18.2216 5.10329 18.3047 5.02051C18.3161 5.00902 18.3268 4.99748 18.3379 4.98633Z" fill="#242424"/>
</svg>
