<svg width="30" height="30" viewBox="0 0 30 30" fill="none" xmlns="http://www.w3.org/2000/svg">
<path d="M23 0C26.866 2.57702e-07 30 3.13401 30 7V23C30 26.866 26.866 30 23 30H22.2764L22.4062 29.6055L22.4424 29.4951L22.4258 29.3799L22.0693 26.8438V23.3721L22.2861 23.0781L22.3408 23.4619L22.3535 23.5527L22.3975 23.6328L23.3027 25.2842L23.4697 25.5889L23.8135 25.5391L25.0801 25.3555L25.291 25.3252L25.415 25.1523L26.8633 23.1328L26.8955 23.0879L26.917 23.0361L27.4609 21.752L27.5 21.6582V11.2568L27.3564 11.1113L27.1377 10.8887V9.7373L27.1172 9.66797L26.5742 7.83301L26.5625 7.79199L26.543 7.75391L26.0205 6.69434L25.6846 5.50195L25.5068 3.16504L25.498 3.04785L25.4385 2.94824L24.8955 2.03027L24.8643 1.97754L24.8213 1.93359L24.0977 1.19922L23.9502 1.05078H22.084L21.9375 1.19922L21.3936 1.75L21.3369 1.80762L21.3018 1.87988L20.5771 3.34863L20.54 3.4248L20.5293 3.50879L20.3555 4.91406L20.166 5.39453L19.4795 5.2793L19.2236 5.23535L19.041 5.4209L18.2627 6.20898L17.8887 5.9248L17.5391 5.65918L17.2305 5.97168L16.7578 6.4502L16.6377 6.20605V4.94824L16.6064 4.86426L16.0635 3.39648L16.0596 3.38574L15.3359 1.55078L15.2988 1.45605L15.2266 1.38281L14.5029 0.648438L14.3555 0.5H12.4463L12.2959 0.703125L10.124 3.63965L10.1064 3.66309L10.0918 3.68848L8.10059 7.17578L8.08008 7.21191L8.06543 7.25098L6.43652 11.6553L6.4209 11.6973L6.41309 11.7412L5.68848 15.7793L5.68359 15.8096L5.68164 15.8408L5.50098 19.3281L5.49121 19.5078L5.59766 19.6514L6.1416 20.3857L6.29102 20.5889H7.44434L7.58203 20.4766L9.39258 19.0088L9.45508 18.958L9.49902 18.8896L10.9629 16.5947L10.9658 16.6016L11.2773 17.3916L11.8174 16.7354L11.8359 16.7119V16.916L11.9004 17.0303L12.625 18.3154L13.0605 19.0879L13.4189 18.4512L13.4668 19.0283L13.5049 19.4873H14.6758L14.7969 19.1611L15.1162 18.2969L15.457 18.6416V19.0117L14.6426 20.168L14.5518 20.2969V21.2402H14.4805L14.334 21.3896L13.2471 22.4902L13.1904 22.5479L13.1553 22.6211L12.9736 22.9873L12.9229 23.0918V25.4932L13.1426 25.6426L13.6855 26.0088L13.8125 26.0947H14.1895V26.54L13.0107 28.248L12.9229 28.376V30H7C3.13401 30 1.61069e-08 26.866 0 23V7C2.57711e-07 3.13401 3.13401 1.61064e-08 7 0H23Z" fill="#242424"/>
</svg>
