<svg width="30" height="30" viewBox="0 0 30 30" fill="none" xmlns="http://www.w3.org/2000/svg">
<path d="M23 0C26.866 2.57702e-07 30 3.13401 30 7V23C30 26.866 26.866 30 23 30H7C3.13401 30 1.61069e-08 26.866 0 23V7C2.57711e-07 3.13401 3.13401 1.61064e-08 7 0H23ZM2 11.2207V18.957H4.3916C4.50761 18.9758 4.65683 18.9869 4.87109 19C5.29358 18.9922 5.29372 18.9921 5.70801 18.9844C6.2041 18.9772 6.70028 18.9689 7.19629 18.957V17.8516H3.29883V16.9678H3.94922L4.54492 16.9971C4.7437 17.0044 4.94276 17.0088 5.1416 17.0068C5.37284 17.0012 5.37297 17.0007 5.59961 16.9951C6.13189 16.9882 6.66408 16.9797 7.19629 16.9678C7.20549 16.3764 7.22685 15.7895 7.19629 15.1992C7.19629 14.0098 7.19727 12.8356 7.19727 11.6631L7.19629 11.6621V11.2207H2ZM14.126 11.2207V12.3262H18.0234V13.21C17.5909 13.2057 17.1582 13.2018 16.7256 13.1992C16.5457 13.1982 16.3709 13.1973 16.1963 13.1963C15.5768 13.1897 14.9624 13.1938 14.3428 13.21C14.1263 13.4309 14.1257 13.4312 14.0977 13.9395C14.0974 14.1658 14.0969 14.3858 14.0967 14.6055C14.0964 14.8502 14.096 15.0877 14.0957 15.3252C14.0966 15.5829 14.0978 15.8338 14.0986 16.084C14.0974 16.4663 14.097 16.4667 14.0957 16.8418C14.096 17.0865 14.0964 17.324 14.0967 17.5615C14.0971 17.9529 14.1045 18.3446 14.126 18.7354C14.3425 18.9563 14.3423 18.9564 14.8438 18.9814C15.1751 18.9797 15.1754 18.9803 15.5 18.9785C15.7167 18.9779 15.9273 18.9771 16.1377 18.9766C16.5498 18.9735 16.5502 18.9737 16.9541 18.9707C17.8329 18.966 18.6861 18.9616 19.5391 18.957V11.2207H14.126ZM8.0625 11.2207V18.957H9.3623V17.6309H11.9609V18.7354C12.0703 18.847 12.0696 18.8476 12.1768 18.957H13.2598V14.7578H12.1768V11.6631H10.8779V14.7578H9.53223L9.3623 12.3262V11.2207H8.0625ZM22.5703 11.2207C22.5657 12.1553 22.5611 13.0627 22.5566 13.9697C22.5546 14.2648 22.5528 14.5515 22.5508 14.8379C22.5502 15.0685 22.5503 15.2928 22.5498 15.5166C22.5486 15.7537 22.547 15.9838 22.5459 16.2139C22.5536 16.3801 22.5601 16.4947 22.5703 16.5801C22.5703 16.6356 22.5703 16.6916 22.5703 16.7471C22.5855 16.751 22.601 16.7539 22.6162 16.7578C22.6489 16.8245 22.6997 16.8786 22.7871 16.9678C23.2294 16.9793 23.6718 16.9892 24.1143 16.9873C24.2933 16.9854 24.4678 16.9833 24.6416 16.9814C24.9846 16.9795 25.3279 16.9777 25.6709 16.9756C25.9418 16.9729 26.2048 16.9703 26.4678 16.9678V17.6533C26.3448 17.6303 26.2371 17.6282 26.0361 17.626C25.8716 17.6367 25.7115 17.6468 25.5518 17.6572C25.3728 17.6682 25.1991 17.6788 25.0254 17.6895C24.8395 17.7022 24.6589 17.7151 24.4785 17.7275C23.8424 17.7677 23.2062 17.8086 22.5703 17.8516V18.957H27.9834L27.999 17.4092C28.0018 16.8937 27.999 16.3781 27.9834 15.8623C27.8907 15.7677 27.8374 15.7145 27.7754 15.6816L27.7676 15.6416H27.6436C27.5775 15.6311 27.4912 15.6241 27.3652 15.6162C27.1034 15.618 27.1031 15.6184 26.8467 15.6201C26.6562 15.6209 26.471 15.6214 26.2861 15.6221C26.0858 15.624 25.8907 15.6261 25.6963 15.6279C25.14 15.6308 24.5836 15.6331 24.0273 15.6377C23.8385 15.6395 23.8384 15.6399 23.6533 15.6416V14.0947C24.1372 14.0993 24.6215 14.1029 25.1055 14.1055C25.3063 14.1065 25.5013 14.1074 25.6963 14.1084C25.8966 14.1103 26.0917 14.1114 26.2861 14.1133C26.4766 14.114 26.6618 14.1155 26.8467 14.1162C27.0229 14.1174 27.1942 14.118 27.3652 14.1191L27.3662 14.1182C27.3724 14.1182 27.3786 14.1191 27.3848 14.1191C27.7671 14.0941 27.767 14.094 27.9834 13.873V11.2207H22.5703ZM18.0234 14.5361V16.084H15.4248V14.5361H18.0234ZM6.11426 14.0947V15.4209C5.13012 15.5325 5.12969 15.5322 4.16504 15.6416H3.29883V14.0947H6.11426ZM20.4053 11V12.3262H21.0527C21.0507 12.4736 21.0479 12.6211 21.0479 12.7686L21.0547 13.4316H21.7041V11H20.4053Z" fill="#242424"/>
</svg>
