<svg width="30" height="30" viewBox="0 0 30 30" fill="none" xmlns="http://www.w3.org/2000/svg">
<path d="M23 0C26.866 2.57702e-07 30 3.13401 30 7V23C30 26.866 26.866 30 23 30H7C3.13401 30 1.61069e-08 26.866 0 23V7C2.57711e-07 3.13401 3.13401 1.61064e-08 7 0H23ZM15.8906 2.00391C15.7469 2.29037 15.7465 2.29091 15.7949 2.97266C15.8829 4.12291 15.9058 5.26271 15.8906 6.41602C15.5013 6.51636 15.2411 6.58275 14.8486 6.5459C14.5897 6.36815 14.4397 6.17805 14.2549 5.9248C14.1912 5.82726 14.1292 5.73237 14.0674 5.6377C13.5997 4.95948 13.2564 4.30539 13.002 3.52051C12.8503 3.00379 12.6689 2.58681 12.375 2.13379C12.198 2.17789 12.0263 2.22087 11.8545 2.26367C11.818 2.6275 11.8055 2.9331 11.9561 3.27246C12.2561 3.81984 12.4928 4.36729 12.6982 4.95605C12.7321 5.05534 12.765 5.15168 12.7979 5.24805C12.9179 5.59379 13.0378 5.93984 13.1562 6.28613C13.0677 6.33025 12.9814 6.37319 12.8955 6.41602C12.8298 6.21962 12.8301 6.21901 12.7656 6.02637C12.5215 5.28842 12.3346 4.46958 11.7236 3.9502C11.3008 3.90968 11.3004 3.90965 10.9424 3.9502C10.8878 4.63603 10.8801 5.08784 11.2354 5.68652C11.6353 6.32814 11.8746 6.9999 12.1143 7.71387C12.0065 7.71111 11.9015 7.70873 11.7969 7.70605C11.4636 7.71416 11.4632 7.71403 11.333 7.84375C11.3237 8.01918 11.3224 8.19544 11.3252 8.37109C11.328 8.54469 11.3303 8.71333 11.333 8.88184C11.0795 8.80466 11.0795 8.80429 10.8125 8.62207C10.6036 8.1876 10.5428 7.90072 10.0967 7.68945C9.77627 7.6108 9.77568 7.61088 9.60059 7.42676C8.72672 6.50759 7.76424 5.48846 6.51562 5.11816C6.03065 5.11816 5.76167 5.15184 5.35156 5.40234C5.15526 5.73608 5.15582 5.73631 5.21387 6.41602C5.34404 6.67547 5.34404 6.67527 5.53418 6.81055C5.61892 6.86104 5.70096 6.91095 5.7832 6.95996C5.98351 7.08217 6.18474 7.20313 6.38574 7.32422C6.98037 7.67945 7.57105 8.03005 8.10742 8.46973C8.53615 8.87332 8.84054 9.1708 8.85938 9.79004C8.2895 9.94906 7.72726 10.1189 7.16699 10.3096C7.15074 10.6092 7.15072 10.6094 7.16699 10.958C7.44273 11.321 7.44293 11.3212 7.50977 11.6973C7.54211 11.893 7.54158 11.8934 7.57324 12.085C7.61208 12.3145 7.65069 12.5445 7.6875 12.7744C7.59896 12.8185 7.5127 12.8615 7.42676 12.9043C7.43955 12.9977 7.45242 13.089 7.46484 13.1797C7.4797 13.3012 7.49437 13.4192 7.50879 13.5371C7.56054 13.8842 7.56055 13.8843 7.55762 14.2021C7.46908 14.2904 7.38281 14.3763 7.29688 14.4619C6.38573 14.7357 5.50338 14.9227 4.55859 14.7646C4.16528 14.6978 3.78777 14.6974 3.39062 14.7217C3.13049 14.9809 3.12986 14.9808 3.10547 15.3779C3.12988 15.7591 3.13059 15.759 3.26074 15.8887C3.63859 15.8948 4.01391 15.8946 4.3916 15.8887C5.16922 15.8762 5.91727 15.8532 6.66113 16.1172C6.73879 16.1528 6.81427 16.1871 6.88965 16.2217C7.02799 16.2851 7.1626 16.3466 7.29688 16.4082V16.668C6.63627 17.1193 6.6361 17.1195 5.80762 17.1709C5.63365 17.1843 5.46475 17.1969 5.2959 17.21C4.7301 17.3374 4.5243 17.5135 4.17188 17.9658C4.0987 18.4358 4.09866 18.4362 4.17188 18.874C4.36697 19.1252 4.36734 19.125 4.69238 19.2627C5.3619 19.3517 5.70552 19.3187 6.26367 18.9385C6.77034 18.5836 7.07699 18.5509 7.6875 18.6143C7.75324 19.0729 7.75295 19.073 7.81738 19.5225C7.95009 19.5665 8.0792 19.6096 8.20801 19.6523C8.20801 20.0416 8.20809 20.0419 8.40332 20.2607C8.46962 20.3186 8.53429 20.3746 8.59863 20.4307C8.45763 20.5361 8.31679 20.6417 8.17578 20.7471C7.97006 20.9017 7.76415 21.0564 7.55762 21.21C6.7732 21.7733 5.99239 22.2951 5.3916 23.0586C5.25981 23.2271 5.12074 23.39 4.97852 23.5498C4.74844 23.8043 4.52296 24.062 4.30176 24.3242C3.90189 24.8514 3.84875 25.2215 3.91113 25.8809C4.24275 26.2114 4.24312 26.2118 5.08301 26.2705C5.48978 26.0002 5.6008 25.8031 5.80664 25.374C6.17692 24.5763 6.49062 23.8117 7.25781 23.3193C8.07786 22.8888 8.76212 22.4247 9.43945 21.7939C9.50788 21.7276 9.57421 21.663 9.64062 21.5986C9.81661 21.7902 9.81661 21.7906 10.0312 21.9883C10.4631 22.0562 10.647 22.0079 11.0293 21.79C11.1326 21.725 11.2328 21.6618 11.333 21.5986C11.3305 21.8579 11.3287 22.1177 11.3271 22.377C11.3265 22.4845 11.3258 22.5889 11.3252 22.6934C11.3213 23.0647 11.3235 23.4333 11.333 23.8047C11.5211 23.9921 11.5214 23.9924 12.1143 24.0645C12.3745 23.8051 12.3748 23.8048 12.457 23.4961C12.4788 23.3751 12.5003 23.2571 12.5215 23.1396C12.5439 23.0181 12.5661 22.9002 12.5879 22.7822C12.612 22.6435 12.6121 22.6428 12.6357 22.5068C12.9187 22.6315 12.9189 22.6317 13.1729 22.9043C13.4868 23.5686 13.4868 23.5692 13.417 24.3242C13.1128 25.2337 13.0135 26.2543 12.9932 27.2109C13.0257 27.6973 13.0261 27.6979 13.2861 27.957C13.6035 28.0138 13.6038 28.0138 13.9375 27.957C14.1843 27.6234 14.3188 27.3476 14.4141 26.9434C14.4319 26.809 14.4495 26.6782 14.4668 26.5479C14.4879 26.3988 14.5079 26.2541 14.5283 26.1094C14.6808 24.9531 14.8274 23.8627 15.2393 22.7666C15.3738 22.7477 15.3742 22.748 15.5059 22.7295C15.6255 22.7147 15.7422 22.6999 15.8584 22.6855C15.9766 22.6701 16.0914 22.6547 16.2061 22.6396C16.7161 22.635 16.9717 22.8209 17.3555 23.1396C17.612 23.5962 17.6085 23.8097 17.5996 24.3242C17.5669 24.8801 17.603 25.2449 17.8438 25.751C18.3276 25.777 18.4654 25.7714 18.8857 25.4922C18.8667 25.3058 18.847 25.119 18.8281 24.9326C18.8038 24.6866 18.7794 24.4403 18.7549 24.1943C18.7336 23.9949 18.7338 23.9943 18.7129 23.7988C18.6996 23.6687 18.6867 23.5423 18.6738 23.416C18.6344 23.0421 18.5857 22.8441 18.7549 22.5068C19.2598 22.4688 19.2599 22.4697 19.6104 22.6709C20.7036 23.9517 20.7042 23.9514 21.1885 25.6133C21.2453 25.7991 21.2451 25.7995 21.3008 25.9814C21.3377 26.1001 21.3743 26.2159 21.4102 26.3311C21.5083 26.658 21.5896 26.8814 21.8037 27.1484C22.0104 27.3086 22.0107 27.3091 22.4092 27.3496C22.7916 27.3091 22.7914 27.3083 23.0518 27.0488C23.1143 26.347 22.9536 25.8776 22.5811 25.2871C21.8812 24.2611 21.4088 23.3763 21.4893 22.1182C21.6663 22.074 21.8389 22.0311 22.0107 21.9883C22.0993 21.5912 22.1846 21.2057 22.2705 20.8203C22.3239 20.8897 22.3759 20.9571 22.4277 21.0244C22.4988 21.1176 22.5678 21.2084 22.6367 21.2988C22.7775 21.4834 22.9161 21.6699 23.0518 21.8584C23.2551 22.2475 23.2555 22.2477 23.4424 22.5068C23.7923 22.5474 23.7926 22.5474 24.0938 22.5068C24.2144 22.1072 24.243 21.9076 24.0947 21.5107C24.0309 21.3945 23.9682 21.2818 23.9062 21.1689C23.8428 21.0509 23.7813 20.9358 23.7197 20.8213C23.6698 20.7327 23.6217 20.6465 23.5732 20.5605C23.9882 20.8362 24.2589 20.8856 24.7451 20.9502C24.7657 20.8068 24.765 20.8065 24.7852 20.666C24.7445 20.3012 24.7444 20.3014 24.4189 19.9365C24.3083 19.84 24.2012 19.746 24.0938 19.6523C24.6678 19.7954 25.1982 19.7922 25.7861 19.7822C25.8123 19.3001 25.8064 19.1628 25.5264 18.7441C25.325 18.6458 25.3243 18.6462 25.127 18.5498C24.7062 18.3918 24.7059 18.3913 24.6143 17.9658C24.6779 17.9162 24.74 17.8675 24.8018 17.8193C25.0552 17.5162 25.0557 17.5162 25.1357 16.7979H24.875C25.0052 16.5383 25.0052 16.5379 24.9482 16.1973C24.9233 16.0925 24.8992 15.9904 24.875 15.8887C25.3638 15.5658 25.8294 15.3072 26.0713 14.7617C26.0469 14.4617 26.0465 14.4616 25.8838 14.2832C25.4797 13.7833 25.4799 13.7831 25.2656 13.1641C25.29 12.7506 25.29 12.7504 25.2656 12.3857C25.1328 12.281 25.0039 12.1789 24.875 12.0771C24.7422 12.0055 24.6133 11.9358 24.4844 11.8662C24.7696 11.4336 24.9313 11.082 25.0049 10.5684C24.7083 10.4009 24.4545 10.302 24.1201 10.2266C23.9894 10.2049 23.8622 10.1842 23.7354 10.1631C23.6033 10.1407 23.4748 10.1194 23.3467 10.0977C23.198 10.0736 23.1977 10.0734 23.0518 10.0498C23.0067 9.49943 23.0227 9.19554 23.2881 8.70312C23.6181 8.18931 23.7892 7.64694 23.9639 7.06543C23.7035 7.06543 23.7028 7.0653 23.4678 7.25488C23.0434 7.64589 22.6737 7.99654 22.1406 8.23242C22.0093 7.90514 22.0087 7.90503 21.8799 7.58398C21.4897 7.68455 21.2319 7.75467 20.8389 7.71387C20.3451 7.34372 20.058 6.83455 19.7969 6.28613C19.8954 6.19204 19.8955 6.19191 19.9922 6.09961C20.2489 5.66249 20.249 5.66239 20.1875 4.59961C19.4996 4.53613 19.0875 4.59533 18.4707 4.91602C18.0402 5.1593 17.6832 5.30235 17.1924 5.37793C16.8565 4.59678 16.7719 3.94644 16.7861 3.10742C16.7952 2.7826 16.801 2.45884 16.8018 2.13379C16.7362 2.06844 16.7363 2.06808 16.6719 2.00391C16.4115 1.99861 16.151 1.99839 15.8906 2.00391ZM23.4424 24.1943C23.418 24.4617 23.418 24.4619 23.4424 24.8428C23.5926 25.2918 23.6591 25.6595 24.0938 25.8896C24.3542 25.8815 24.3545 25.8816 24.7451 25.6221C24.8161 25.1569 24.8072 24.9315 24.5332 24.543C24.1667 24.2835 23.886 24.2345 23.4424 24.1943ZM15.7607 24.1943C15.6143 24.3403 15.6139 24.3402 15.5 25.1025H16.0205C16.109 25.0143 16.1953 24.9284 16.2812 24.8428C16.2975 24.5024 16.2975 24.5023 16.2812 24.1943H15.7607ZM3 22.5068V23.0264C3.08853 23.1146 3.17482 23.2005 3.26074 23.2861C3.52362 23.1551 3.52352 23.1548 3.78125 23.0264C3.73698 22.8499 3.69434 22.6781 3.65137 22.5068H3ZM13.75 14.9238C14.4947 14.2691 15.4264 13.8911 16.4111 14.2021C17.1965 14.724 17.5825 15.415 17.8604 16.3027C17.9936 16.7394 18.0913 17.039 18.3564 17.4141C18.7318 17.8222 19.0493 18.2363 19.2764 18.7441C19.3904 19.5233 19.2607 20.138 18.8691 20.8203C18.5245 21.3562 18.2138 21.5659 17.583 21.7285C16.8692 21.7157 16.3386 21.4816 15.7607 21.0801C15.049 20.4451 14.5741 20.2181 13.6074 20.2061C12.797 20.2191 11.9535 20.3031 11.1904 19.9912C10.7432 19.7435 10.6079 19.6067 10.4219 19.1328C10.2033 18.3294 10.2997 17.7106 10.6455 16.957C11.0392 16.2762 11.5396 16.0158 12.2695 15.7998C12.7776 15.673 13.12 15.5296 13.5068 15.1602C13.5896 15.08 13.6696 15.0016 13.75 14.9238ZM7.55762 19.7822C7.22056 19.6815 7.10055 19.6207 6.77637 19.7822V20.042C6.59928 20.0861 6.42676 20.1291 6.25488 20.1719V20.8203C6.35443 20.8534 6.45123 20.8859 6.54785 20.918C6.9059 20.9504 6.90631 20.9501 7.19922 20.7393C7.4435 20.4089 7.51259 20.1861 7.55762 19.7822ZM25.7861 20.042C25.7861 20.4309 25.7865 20.4311 26.0469 20.8203C26.3887 20.8446 26.389 20.8446 26.6982 20.8203C26.7796 20.577 26.7793 20.5765 26.8281 20.3008C26.7397 20.2126 26.6533 20.1276 26.5674 20.042C26.1608 20.0258 26.1604 20.0258 25.7861 20.042ZM20.9932 14.2832C21.3746 14.3002 21.3749 14.3002 21.6445 14.5752C22.1642 15.4682 22.3855 16.3053 22.1406 17.3164C21.8743 17.8193 21.4771 18.1059 20.9688 18.3545C20.334 18.2942 19.9234 18.1335 19.4141 17.7549C19.0197 17.3861 18.8991 17.0835 18.8438 16.5537C18.9286 15.9937 19.1991 15.5855 19.5713 15.168C19.7384 15.016 19.7386 15.0161 19.9023 14.8672C20.2837 14.5101 20.4693 14.3446 20.9932 14.2832ZM10.0547 12.4688C10.7157 11.8724 11.3925 11.2997 12.2451 11.8662C12.5325 12.3729 12.733 12.9132 12.8076 13.4912C12.8226 14.1833 12.7124 14.6024 12.2607 15.1426C11.6395 15.4892 10.9891 15.4762 10.292 15.3701C9.741 15.0481 9.57178 14.6762 9.37988 14.0723C9.36716 13.3612 9.58274 12.9708 10.0547 12.4688ZM18.3643 8.88184C18.8941 8.4372 19.2668 8.43077 19.9268 8.62207C20.2277 8.88871 20.3832 9.14634 20.5654 9.50098C20.9699 10.4771 21.0433 11.9016 20.708 12.9043C20.2508 13.5771 19.8024 13.9781 19.0156 14.2021C18.5439 14.1927 18.2916 14.1049 17.8848 13.8691C17.3689 13.3272 17.2229 12.7691 17.1357 12.0371C17.1856 10.8939 17.6021 9.73417 18.3643 8.88184ZM22.1406 13.1641C22.0964 13.3404 22.0537 13.5115 22.0107 13.6826H21.75C21.7942 13.4622 21.8369 13.2482 21.8799 13.0342C21.9684 13.0783 22.0547 13.1212 22.1406 13.1641ZM28 12.7744C27.0606 12.7284 26.2908 12.8839 25.3955 13.1641C25.4398 13.2964 25.4834 13.4252 25.5264 13.5537C25.7842 13.5562 26.042 13.558 26.2998 13.5596C26.4073 13.5602 26.5119 13.5609 26.6162 13.5615C27.0893 13.5665 27.569 13.6385 28 13.4238V12.7744ZM14.3281 8.49219C14.9905 7.78234 15.5307 7.331 16.542 7.58398C16.9205 7.9975 16.9207 7.99809 17.1035 8.55762C17.3882 9.86792 16.8433 11.1628 16.1514 12.2559C15.8581 12.642 15.5777 12.86 15.0879 12.9639C14.5569 13.0011 14.1831 12.9515 13.7588 12.6201C13.2689 12.097 13.007 11.7618 12.9775 11.0391C13.0173 10.0794 13.4336 9.43723 14.0742 8.75195C14.1605 8.66371 14.2444 8.57783 14.3281 8.49219ZM5.34375 9.91992C4.99382 9.88748 4.99349 9.88748 4.69238 9.91992C4.58394 10.4927 4.48904 10.7182 4.82324 11.2178C5.2216 11.2502 5.22213 11.2502 5.60449 11.2178C5.73458 11.0881 5.7341 11.0877 5.7666 10.7881C5.72758 10.3701 5.65141 10.2054 5.34375 9.91992ZM11.8545 10.1797V10.6982C11.7218 10.7423 11.5927 10.7853 11.4639 10.8281C11.5081 10.6077 11.5508 10.3937 11.5938 10.1797H11.8545ZM25.7861 9.66016C25.7419 9.83664 25.6992 10.0084 25.6562 10.1797C25.8332 10.2238 26.005 10.2668 26.1768 10.3096C26.221 10.089 26.2646 9.87427 26.3076 9.66016H25.7861ZM6.64551 9.40039C6.38545 9.40039 6.38521 9.40061 6.125 9.53027V10.1797C6.30196 10.1356 6.47375 10.0926 6.64551 10.0498V9.40039ZM24.7451 10.1797H25.3955V9.66016C25.0672 9.59471 25.067 9.59443 24.7451 9.53027V10.1797ZM19.5361 7.32422C19.5804 7.54482 19.624 7.75952 19.667 7.97363C19.5343 7.92955 19.4052 7.88653 19.2764 7.84375C19.3206 7.66727 19.3633 7.49551 19.4062 7.32422H19.5361ZM17.0625 6.67578C17.0182 6.80811 16.9756 6.937 16.9326 7.06543C16.7999 7.1095 16.6708 7.15156 16.542 7.19434C16.6304 7.01809 16.7159 6.84685 16.8018 6.67578H17.0625ZM24.4922 6.01855C24.0941 6.02665 24.0937 6.02685 23.9639 6.15625C23.9586 6.37246 23.9583 6.58946 23.9639 6.80566C24.1806 6.8112 24.3975 6.81093 24.6143 6.80566C24.7607 6.65968 24.7611 6.65898 24.875 6.02637C24.6819 6.02227 24.6815 6.02257 24.4922 6.01855ZM18.1045 3.56152C18.0602 3.82618 18.0166 4.08297 17.9736 4.33984C18.076 4.36742 18.176 4.39413 18.2754 4.4209C18.625 4.46952 18.6251 4.46942 19.0156 4.20996C19.04 3.86955 19.04 3.86942 19.0156 3.56152H18.1045Z" fill="#242424"/>
</svg>
