<svg width="30" height="30" viewBox="0 0 30 30" fill="none" xmlns="http://www.w3.org/2000/svg">
<path d="M23 0C26.866 2.57702e-07 30 3.13401 30 7V23C30 26.866 26.866 30 23 30H7C3.13401 30 1.61069e-08 26.866 0 23V7C2.57711e-07 3.13401 3.13401 1.61064e-08 7 0H23ZM9.34277 3.00391C9.24617 3.00545 9.14934 3.00606 9.05273 3.00586C8.88541 3.00545 8.7181 3.00515 8.55078 3.00684C8.30651 3.00944 8.06166 3.01128 7.81738 3.01172C7.42159 3.01237 7.02567 3.01458 6.62988 3.01758C6.24414 3.02052 5.85841 3.02302 5.47266 3.02441C5.4481 3.0245 5.42422 3.02433 5.40039 3.02441C5.2807 3.02484 5.1607 3.02499 5.04102 3.02539C4.02733 3.02877 3.01367 3.03466 2 3.04199C2 3.12918 2.00027 3.1297 2.05176 3.19824C2.11541 3.27229 2.11576 3.27234 2.16309 3.35059C2.23966 3.47855 2.31588 3.60066 2.41504 3.71191C2.49291 3.79823 2.5618 3.88723 2.62891 3.98242C2.68903 4.06788 2.74996 4.15107 2.81543 4.23242C2.89321 4.32661 2.97538 4.41804 3.03809 4.52344C3.09548 4.63632 3.16154 4.72178 3.24609 4.81445C3.32919 4.90526 3.40277 4.99439 3.46875 5.09863C3.50902 5.1628 3.54897 5.22237 3.59766 5.28027C3.70051 5.39428 3.78972 5.51036 3.875 5.63867C3.96821 5.77933 4.06886 5.90938 4.17871 6.03711C4.24335 6.11047 4.30833 6.18286 4.3584 6.26758C4.40225 6.34868 4.44362 6.42153 4.50293 6.49219C4.5939 6.58715 4.68127 6.67974 4.75391 6.79004C4.83856 6.93161 4.92116 7.0576 5.0332 7.17871C5.12333 7.27581 5.19403 7.37081 5.25977 7.48633C5.29897 7.5599 5.29898 7.56015 5.33301 7.61328H5.39062C5.39062 7.67767 5.39057 7.67825 5.5127 7.80859C5.58979 7.89068 5.64949 7.96377 5.70508 8.0625C5.76451 8.17293 5.84045 8.26294 5.92285 8.35645C5.99066 8.43338 6.05892 8.50789 6.11133 8.59668C6.15701 8.68187 6.20087 8.75549 6.26367 8.8291C6.3868 8.95719 6.49477 9.07986 6.58301 9.23535C6.62152 9.30829 6.62214 9.30806 6.65527 9.36035H6.71289C6.71289 9.4185 6.71268 9.41877 6.78418 9.50391C6.83761 9.56524 6.88836 9.62765 6.93652 9.69336C7.04575 9.84808 7.15762 9.99955 7.27441 10.1484C7.36997 10.27 7.46161 10.3928 7.54785 10.5215C7.59367 10.5921 7.59356 10.5925 7.63184 10.6416H7.68945C7.7912 10.8558 7.91695 11.0509 8.07715 11.2246C8.17178 11.3266 8.24792 11.4286 8.32031 11.5479C8.34819 11.5961 8.377 11.6444 8.4082 11.6904H8.46582C8.49754 11.7621 8.53384 11.8215 8.5791 11.8857C8.68073 12.0209 8.78256 12.1562 8.88086 12.2939C8.92022 12.3499 8.91995 12.3501 8.9541 12.3887H9.01172C9.02149 12.4283 9.03056 12.4674 9.04004 12.5059H9.09766C9.15792 12.6888 9.26937 12.8292 9.39746 12.9697C9.46083 13.039 9.52078 13.1061 9.57422 13.1836C9.63272 13.2772 9.68908 13.366 9.76172 13.4492C9.87421 13.5711 9.97488 13.6871 10.0605 13.8301C10.1289 13.9443 10.2018 14.0402 10.292 14.1377C10.3816 14.2343 10.4516 14.3283 10.5166 14.4434C10.555 14.5163 10.5548 14.5169 10.5918 14.5732C10.6209 14.5831 10.6494 14.592 10.6777 14.6016C10.6777 14.6598 10.6778 14.6605 10.7178 14.71C10.7887 14.7868 10.8593 14.8611 10.915 14.9502C10.9412 14.9989 10.9678 15.048 10.9941 15.0967C11.0658 15.169 11.1289 15.2447 11.1904 15.3262C11.2038 15.344 11.2165 15.3616 11.2295 15.3789C11.2756 15.4401 11.3222 15.5012 11.3682 15.5625C11.3392 15.6301 11.3106 15.6792 11.2607 15.7334C11.1818 15.8084 11.1035 15.882 11.0371 15.9688C10.9533 16.0886 10.8647 16.192 10.7607 16.2949C10.6834 16.3714 10.6189 16.4388 10.5576 16.5293C10.51 16.6041 10.464 16.6554 10.4014 16.7168C10.3455 16.7695 10.3064 16.8108 10.2695 16.8789C10.2581 16.9052 10.2583 16.9059 10.2471 16.9316H10.1895C10.176 16.9483 10.1625 16.9643 10.1494 16.9805C10.0513 17.1228 9.9483 17.2706 9.82129 17.3877C9.78121 17.4199 9.741 17.4519 9.70117 17.4844C9.67717 17.5751 9.67667 17.5754 9.61133 17.6455C9.58564 17.6736 9.56107 17.7012 9.53613 17.7285C9.48623 17.7835 9.43544 17.8383 9.38477 17.8926C9.31272 17.9646 9.24312 18.0359 9.17773 18.1143C9.00881 18.3278 8.83307 18.5331 8.65234 18.7363C8.55737 18.843 8.46327 18.9513 8.37012 19.0596C8.33749 19.0975 8.3042 19.1349 8.27148 19.1729C8.22111 19.2312 8.17144 19.2903 8.12109 19.3486C8.01628 19.4703 7.91067 19.5913 7.80469 19.7119C7.73248 19.7941 7.66028 19.8771 7.58887 19.96C7.55552 19.9988 7.52184 20.0375 7.48828 20.0762C7.4674 20.0994 7.44702 20.1219 7.42676 20.1445C7.40558 20.1682 7.38482 20.1919 7.36426 20.2148C7.32806 20.2549 7.29273 20.2958 7.25879 20.3379C7.24046 20.3771 7.22131 20.4168 7.20117 20.4551C7.11504 20.4842 7.11484 20.4843 7.07422 20.5498C7.03079 20.6314 7.03051 20.6314 6.96875 20.7021C6.94639 20.7269 6.92503 20.7514 6.90332 20.7754C6.85946 20.8243 6.81518 20.8728 6.77051 20.9209C6.69837 20.993 6.62795 21.0642 6.5625 21.1426C6.44985 21.285 6.33605 21.4258 6.2168 21.5625C6.19163 21.5911 6.19148 21.5913 6.16699 21.6191C6.12868 21.6628 6.09008 21.7073 6.05176 21.751C5.99663 21.8137 5.9413 21.8762 5.88672 21.9395C5.81591 22.0218 5.74486 22.1043 5.67285 22.1855C5.57289 22.2978 5.47312 22.4105 5.375 22.5244C5.32355 22.5843 5.27171 22.6437 5.21973 22.7031C5.09415 22.846 4.96878 22.9895 4.84473 23.1338C4.77822 23.2118 4.71163 23.2896 4.64355 23.3662C4.57302 23.4361 4.51006 23.4957 4.45898 23.5811C4.37308 23.7273 4.26297 23.8461 4.13379 23.9541C4.07863 23.9978 4.04421 24.0271 4.0127 24.0908C3.98316 24.1567 3.98369 24.157 3.92773 24.2197C3.90556 24.244 3.88382 24.2674 3.8623 24.291C3.83841 24.3174 3.81518 24.3435 3.79199 24.3691C3.75115 24.4143 3.71091 24.46 3.6709 24.5059C3.60327 24.5847 3.53519 24.6631 3.4668 24.7412C3.28992 24.9425 3.11363 25.1447 2.94434 25.3525C2.87471 25.4385 2.80553 25.5213 2.72852 25.6006C2.61301 25.7155 2.5444 25.7952 2.51758 25.958C3.00163 25.9612 3.48567 25.9643 3.96973 25.9658C4.20517 25.9666 4.44132 25.9671 4.67676 25.9688C4.88344 25.9702 5.09019 25.9712 5.29688 25.9717C5.40593 25.9719 5.51498 25.9717 5.62402 25.9727C5.72837 25.9737 5.83315 25.9746 5.9375 25.9746C5.97602 25.9745 6.01519 25.9746 6.05371 25.9746C6.10878 25.9754 6.10896 25.9758 6.16309 25.9766C6.19695 25.9764 6.22982 25.9758 6.2627 25.9756C6.30664 25.9758 6.30752 25.9764 6.35059 25.9766C6.42542 25.9587 6.42574 25.9584 6.49023 25.8877C6.53658 25.8141 6.53672 25.8135 6.58887 25.7627C6.66059 25.694 6.72863 25.6253 6.79004 25.5469C6.87958 25.426 6.97013 25.3156 7.07715 25.21C7.14893 25.1392 7.20609 25.0775 7.2627 24.9932C7.30905 24.9212 7.3512 24.8711 7.41113 24.8115C7.4827 24.7412 7.55079 24.6691 7.61621 24.5928C7.69027 24.5055 7.76641 24.4202 7.84277 24.335C7.89848 24.2733 7.94397 24.2189 7.9834 24.1455C7.99091 24.1284 7.99857 24.1114 8.00586 24.0947H8.06348V24.0361H8.12109C8.17698 23.9414 8.17685 23.9407 8.24707 23.8555C8.2602 23.8396 8.27338 23.824 8.28613 23.8086C8.33551 23.748 8.38504 23.6877 8.43652 23.6289C8.50497 23.5598 8.57276 23.4938 8.63281 23.417C8.69425 23.3322 8.75286 23.2475 8.83008 23.1768C8.89743 23.1232 8.95027 23.0816 8.99512 23.0068C9.03759 22.93 9.03774 22.9292 9.0918 22.8662C9.11084 22.8451 9.12995 22.8252 9.14844 22.8047C9.1795 22.7699 9.17951 22.7694 9.20996 22.7354C9.24751 22.6934 9.28439 22.6509 9.32129 22.6084C9.38968 22.5288 9.45918 22.4491 9.52832 22.3701C9.61985 22.266 9.71124 22.1617 9.80176 22.0566C9.87317 21.9737 9.94537 21.8908 10.0176 21.8086C10.0728 21.7458 10.128 21.6824 10.1826 21.6191C10.2533 21.5369 10.3246 21.4552 10.3965 21.374C10.497 21.2611 10.5975 21.1477 10.6963 21.0332C10.7284 20.9957 10.7607 20.9583 10.793 20.9209C10.8208 20.8895 10.8214 20.8891 10.8486 20.8584C10.867 20.8376 10.8845 20.8171 10.9023 20.7969C10.9529 20.7401 10.9926 20.6905 11.0283 20.623C11.0361 20.6056 11.0442 20.5882 11.0518 20.5713H11.1094C11.1496 20.5244 11.1877 20.4754 11.2246 20.4258C11.2406 20.4041 11.256 20.3824 11.2715 20.3613C11.2889 20.338 11.3063 20.3156 11.3232 20.293C11.3557 20.2489 11.3894 20.2058 11.4248 20.1641C11.5015 20.1032 11.5655 20.0513 11.625 19.9727C11.7125 19.8406 11.7949 19.7221 11.917 19.6211C12 19.5525 12.0564 19.4876 12.1133 19.3955C12.1771 19.2914 12.2472 19.2094 12.334 19.124C12.377 19.0834 12.4193 19.042 12.46 18.999C12.5476 18.8632 12.6372 18.7561 12.7529 18.6455C12.8278 18.5744 12.9079 18.5132 12.9385 18.4111C12.9418 18.3932 12.9451 18.3758 12.9482 18.3584H13.0059C13.0248 18.3368 13.0432 18.3158 13.0615 18.2949C13.0827 18.2672 13.1034 18.2398 13.124 18.2129C13.1455 18.1851 13.1667 18.1579 13.1875 18.1309C13.2038 18.1093 13.2195 18.0883 13.2354 18.0674C13.2451 18.0772 13.2552 18.0861 13.2646 18.0957C13.3138 18.143 13.3615 18.1925 13.4082 18.2422C13.4179 18.2717 13.4271 18.3004 13.4365 18.3291C13.5247 18.3808 13.5249 18.3808 13.5703 18.458C13.6408 18.5774 13.7055 18.6883 13.8018 18.7881C13.867 18.8472 13.8673 18.8475 13.9004 18.9062C13.9276 18.9565 13.9549 19.0066 13.9824 19.0566C14.0019 19.0665 14.0212 19.0764 14.04 19.0859C14.0498 19.1156 14.0599 19.145 14.0693 19.1738C14.0985 19.1837 14.127 19.1936 14.1553 19.2031C14.1553 19.2608 14.1552 19.261 14.1914 19.2988C14.2442 19.3486 14.2445 19.3492 14.292 19.417C14.3692 19.5272 14.4466 19.637 14.5293 19.7432C14.6268 19.8649 14.722 19.9871 14.8125 20.1143C14.8978 20.2344 14.9858 20.3528 15.0752 20.4697C15.1441 20.5597 15.2122 20.6501 15.2783 20.7422C15.3552 20.8509 15.4321 20.9589 15.5156 21.0625C15.5935 21.157 15.6764 21.2488 15.7393 21.3545C15.7794 21.4335 15.8209 21.5025 15.8789 21.5693C15.9692 21.6673 16.0586 21.7611 16.1318 21.873C16.2 21.9877 16.2652 22.0954 16.3525 22.1963C16.4871 22.3407 16.6023 22.4726 16.6914 22.6504C16.7022 22.6737 16.7023 22.6745 16.7129 22.6973H16.7705V22.7549H16.8271C16.8271 22.8131 16.8272 22.8138 16.8672 22.8633C16.9375 22.9394 17.0082 23.0127 17.0625 23.1016C17.0886 23.1514 17.1161 23.2009 17.1436 23.25C17.2376 23.344 17.3199 23.4356 17.3955 23.5449C17.4769 23.6646 17.557 23.7842 17.6494 23.8955C17.7062 23.9637 17.7584 24.033 17.8096 24.1055C17.8521 24.1661 17.8525 24.1663 17.8906 24.2109H17.9482C17.9482 24.2765 17.948 24.2769 18.0342 24.4443H18.0918V24.502C18.1226 24.5323 18.1231 24.5328 18.1533 24.5625C18.2019 24.6094 18.24 24.6549 18.2783 24.7109C18.3399 24.8081 18.3968 24.8975 18.4766 24.9805C18.6198 25.1221 18.7506 25.283 18.8477 25.4609C18.8721 25.506 18.8725 25.5066 18.8965 25.5508C18.9258 25.579 18.9544 25.6081 18.9824 25.6377C19.0291 25.7304 19.0759 25.8071 19.1416 25.8877C19.2785 26.0057 19.2789 26.0054 19.8721 25.9961C19.9659 25.9945 20.0605 25.9939 20.1543 25.9941C20.3167 25.9946 20.4792 25.9949 20.6416 25.9932C20.8787 25.9906 21.1164 25.9887 21.3535 25.9883C21.7376 25.9876 22.1217 25.9854 22.5059 25.9824C22.8802 25.9795 23.2546 25.977 23.6289 25.9756C23.6643 25.9755 23.6647 25.9757 23.6992 25.9756C23.8154 25.9752 23.9317 25.975 24.0479 25.9746C25.0319 25.9712 26.016 25.9653 27 25.958C26.9861 25.8543 26.9777 25.7923 26.918 25.7051C26.8102 25.5816 26.706 25.4596 26.6172 25.3213C26.5755 25.2546 26.5334 25.1921 26.4854 25.1299C26.3879 25.0089 26.2899 24.888 26.1953 24.7646C26.1399 24.6795 26.086 24.5957 26.0225 24.5166C25.9184 24.3899 25.8159 24.2649 25.7266 24.127C25.6841 24.0604 25.6418 23.9973 25.5938 23.9346C25.4843 23.8001 25.3786 23.6624 25.2773 23.5215C25.2013 23.4145 25.1258 23.3074 25.0449 23.2041C24.9691 23.1095 24.8928 23.0155 24.8232 22.916C24.7326 22.7818 24.6393 22.6541 24.5361 22.5293C24.4941 22.4796 24.4532 22.4289 24.4141 22.377C24.3861 22.3183 24.3568 22.2599 24.3271 22.2021C24.2979 22.1923 24.2696 22.1824 24.2412 22.1729C24.2412 22.1146 24.2409 22.1147 24.2041 22.0762C24.1523 22.0275 24.1524 22.0271 24.1074 21.9629C24.0098 21.8231 23.9098 21.6859 23.8047 21.5518C23.705 21.4249 23.6063 21.2995 23.5195 21.1631C23.4553 21.0617 23.3837 20.9696 23.3076 20.877C23.2262 20.7781 23.1505 20.6791 23.0811 20.5713C23.0444 20.5122 23.0111 20.4601 22.9629 20.4102C22.8211 20.2467 22.8208 20.2465 22.7002 20.0654C22.6107 19.9333 22.5181 19.8069 22.417 19.6836C22.3355 19.5843 22.2584 19.4835 22.1865 19.377C22.1336 19.2984 22.0797 19.2233 22.0205 19.1494C21.942 19.0543 21.8582 18.9628 21.7949 18.8564C21.7548 18.7774 21.7132 18.7084 21.6553 18.6416C21.5386 18.515 21.4349 18.3928 21.3447 18.2451C21.3001 18.1685 21.2603 18.104 21.1982 18.041C21.1366 17.9786 21.087 17.9111 21.0371 17.8389C20.9572 17.722 20.8768 17.6059 20.79 17.4941C20.6821 17.3607 20.5816 17.2249 20.4863 17.082C20.4244 16.9879 20.3651 16.9053 20.2871 16.8242C20.2037 16.7421 20.1404 16.6496 20.0752 16.5527C19.9895 16.4251 19.9038 16.2986 19.8076 16.1787C19.7124 16.0632 19.6165 15.9537 19.5449 15.8213C19.5297 15.7928 19.5148 15.7649 19.5 15.7373C19.2811 15.546 19.2805 15.546 19.126 15.2861C19.0649 15.1908 18.9994 15.102 18.9287 15.0137C18.8683 14.9385 18.8097 14.8623 18.7529 14.7842C18.66 14.6531 18.5661 14.5239 18.4658 14.3984C18.386 14.2986 18.3094 14.197 18.2354 14.0928C18.1794 14.0137 18.1235 13.9353 18.0635 13.8594C17.956 13.7264 17.8571 13.5925 17.7646 13.4482C17.7316 13.3952 17.6977 13.3426 17.6611 13.292H17.6035V13.2334C17.5404 13.1727 17.4969 13.1155 17.4541 13.0391C17.4278 12.9904 17.428 12.9899 17.4023 12.9424H17.3447C17.3014 12.857 17.2814 12.8158 17.3086 12.7217C17.3266 12.686 17.3271 12.6861 17.3447 12.6514C17.3635 12.6123 17.3826 12.5727 17.4023 12.5342H17.46C17.4763 12.5146 17.492 12.4956 17.5078 12.4766C17.5754 12.3877 17.6476 12.3039 17.7207 12.2197C17.7394 12.1983 17.7572 12.1771 17.7754 12.1562C17.8515 12.0684 17.9281 11.9799 18.0059 11.8936C18.0766 11.8235 18.1393 11.7644 18.1904 11.6787C18.2515 11.5747 18.3257 11.4859 18.4082 11.3984C18.5207 11.3087 18.599 11.2323 18.6797 11.1113C18.742 11.0173 18.8032 10.9349 18.8838 10.8564C18.9343 10.8078 18.9802 10.7613 19.0225 10.7051C19.1111 10.578 19.2082 10.4678 19.3184 10.3594C19.3704 10.309 19.4221 10.2579 19.4717 10.2051C19.5495 10.0704 19.6369 9.97504 19.748 9.86816C19.7657 9.85131 19.7827 9.83472 19.7998 9.81836C19.8167 9.80184 19.8332 9.78557 19.8496 9.76953C19.9035 9.71792 19.9281 9.6896 19.9502 9.61719C19.9533 9.59929 19.9569 9.58183 19.96 9.56445H20.0176C20.1035 9.44003 20.1035 9.43982 20.2168 9.33691C20.3042 9.25315 20.3783 9.18326 20.4307 9.07227C20.4395 9.04163 20.4395 9.04106 20.4482 9.01074H20.5059C20.5765 8.93197 20.6368 8.8606 20.6875 8.76758C20.6942 8.75149 20.7005 8.73534 20.707 8.71973H20.7646C20.7783 8.70253 20.7914 8.68565 20.8047 8.66895C20.922 8.51475 20.9223 8.51428 21.0518 8.37012C21.1001 8.32222 21.1482 8.27372 21.1953 8.22461C21.2695 8.09726 21.3495 8.00592 21.4541 7.9043C21.5456 7.81565 21.626 7.72538 21.7012 7.62207C21.7941 7.4937 21.8834 7.37463 22.0059 7.27344C22.0942 7.20116 22.153 7.12713 22.2158 7.03125C22.2822 6.92946 22.3482 6.85096 22.4404 6.77246C22.4998 6.72541 22.5404 6.69312 22.5752 6.625C22.6023 6.56222 22.6024 6.56204 22.6523 6.50488C22.6811 6.47301 22.6809 6.47251 22.709 6.44141C22.7301 6.41783 22.751 6.39496 22.7715 6.37207C22.8092 6.32998 22.8468 6.28688 22.8838 6.24414C22.9543 6.16182 23.0258 6.08016 23.0977 5.99902C23.2311 5.84912 23.3634 5.69829 23.4941 5.5459C23.5606 5.46791 23.6272 5.39006 23.6953 5.31348C23.7436 5.26562 23.7917 5.21704 23.8389 5.16797C23.9317 5.00979 24.0376 4.86711 24.1758 4.74609C24.2173 4.71269 24.2582 4.67804 24.2988 4.64355C24.3326 4.57391 24.3615 4.52017 24.4111 4.45996C24.4333 4.43571 24.4551 4.41221 24.4766 4.38867C24.5005 4.36226 24.5237 4.33618 24.5469 4.31055C24.5878 4.26536 24.6289 4.21976 24.6689 4.17383C24.7364 4.09518 24.8038 4.01645 24.8721 3.93848C25.0111 3.78025 25.1528 3.62319 25.2861 3.45996C25.3205 3.41748 25.3557 3.37495 25.3906 3.33301C25.4957 3.23383 25.5418 3.18526 25.5635 3.04199C25.073 3.03615 24.5823 3.03106 24.0918 3.02832C23.8533 3.02701 23.6145 3.02637 23.376 3.02344C23.1667 3.02081 22.9574 3.01839 22.748 3.01758C22.6374 3.01727 22.5267 3.01726 22.416 3.01562C22.3102 3.01379 22.2044 3.01164 22.0986 3.01172C22.0596 3.01187 22.0205 3.01179 21.9814 3.01172C21.8493 3.0083 21.7252 3.00348 21.5977 3.04199C21.5342 3.10351 21.4969 3.16029 21.457 3.23926C21.4252 3.31167 21.4248 3.31178 21.3496 3.38672C21.2776 3.45497 21.2061 3.52278 21.1377 3.59473C21.0769 3.68772 21.0216 3.77069 20.9453 3.85156C20.8431 3.95063 20.7371 4.04165 20.6621 4.16406C20.6224 4.23831 20.6217 4.23852 20.5625 4.30566C20.4782 4.39814 20.3935 4.4903 20.3115 4.58496C20.2373 4.67201 20.162 4.75828 20.085 4.84277C19.9647 4.97408 19.8459 5.10484 19.7393 5.24805C19.6744 5.33519 19.6056 5.41126 19.5283 5.4873C19.4488 5.56544 19.3801 5.64569 19.3135 5.73535C19.2636 5.80246 19.214 5.86542 19.1562 5.92578C19.0785 6.00217 19.0012 6.07613 18.9336 6.16211C18.8403 6.2886 18.7445 6.40215 18.6328 6.5127C18.5856 6.55817 18.539 6.60445 18.4941 6.65234C18.4337 6.7449 18.3786 6.82773 18.3027 6.9082C18.1937 7.01381 18.0872 7.11159 18.002 7.23828C17.9524 7.3203 17.9527 7.32072 17.8984 7.37891C17.882 7.3949 17.8656 7.41026 17.8496 7.42578C17.8157 7.45935 17.7814 7.49322 17.7471 7.52637C17.6677 7.6014 17.6113 7.65425 17.5654 7.75391C17.5588 7.77543 17.5524 7.79649 17.5459 7.81738C17.4886 7.81738 17.4883 7.81715 17.4473 7.85742C17.432 7.87583 17.4172 7.89424 17.4023 7.91211C17.3547 7.9686 17.3167 8.02024 17.2822 8.08594C17.2743 8.10342 17.2665 8.12073 17.2588 8.1377H17.2012C17.1457 8.22425 17.146 8.22459 17.0869 8.2998C17.0533 8.34204 17.0524 8.3415 17.0195 8.38281C16.976 8.4379 16.931 8.49211 16.8848 8.54492C16.8158 8.59987 16.7532 8.63887 16.7119 8.71777C16.6842 8.78414 16.6838 8.78434 16.6221 8.85156C16.5847 8.89219 16.547 8.93286 16.5098 8.97363C16.4965 8.98818 16.4836 9.00248 16.4707 9.0166C16.3931 9.10181 16.3173 9.18886 16.2422 9.27637C16.2099 9.31402 16.1779 9.35211 16.1455 9.38965C16.1283 9.40951 16.1114 9.42896 16.0947 9.44824C16.0613 9.48702 16.0276 9.52573 15.9941 9.56445C15.9057 9.66524 15.8177 9.76608 15.7354 9.87207C15.6293 10.01 15.5289 10.1293 15.3906 10.2344C15.3231 10.1888 15.2808 10.155 15.2402 10.083C15.2329 10.0651 15.2258 10.0477 15.2188 10.0303H15.1611C15.1496 9.95538 15.1336 9.91595 15.0859 9.85645C14.9732 9.73847 14.8786 9.62016 14.793 9.48047C14.7518 9.41085 14.7145 9.34589 14.6592 9.28711C14.6113 9.24228 14.6116 9.2418 14.5605 9.17871C14.5407 9.15383 14.5212 9.12962 14.502 9.10547C14.4359 9.02341 14.3812 8.94522 14.3301 8.85254C14.2808 8.76268 14.2233 8.68826 14.1562 8.61133C14.0411 8.48107 13.938 8.35341 13.8516 8.20117C13.8138 8.12975 13.8134 8.12946 13.7812 8.0791H13.7246C13.7246 8.02115 13.7243 8.02085 13.6865 7.97461C13.5857 7.86673 13.5041 7.7613 13.4316 7.63184C13.3896 7.55249 13.3694 7.50678 13.29 7.46484C13.2627 7.45163 13.2622 7.45143 13.2354 7.43848C13.2068 7.35156 13.2069 7.35125 13.1611 7.28223C13.1414 7.25508 13.1217 7.2285 13.1025 7.20215C13.0285 7.10037 12.9529 6.99994 12.876 6.90039C12.8227 6.83174 12.7715 6.76197 12.7207 6.69141C12.6456 6.58557 12.5704 6.47997 12.4902 6.37793C12.3927 6.25666 12.2982 6.13443 12.209 6.00684C12.1124 5.86805 12.0158 5.73064 11.9102 5.59863C11.8526 5.52707 11.796 5.45536 11.7422 5.38086C11.6638 5.26999 11.5861 5.15938 11.501 5.05371C11.4235 4.9598 11.3402 4.86913 11.2783 4.76367C11.2358 4.67876 11.1941 4.61294 11.1309 4.54102C11.035 4.43777 10.9371 4.33938 10.8613 4.21973C10.7821 4.07548 10.6998 3.95806 10.5879 3.83691C10.5078 3.75094 10.4353 3.67169 10.3799 3.56738C10.3565 3.52272 10.3561 3.52254 10.333 3.47852C10.2938 3.44091 10.256 3.40189 10.2188 3.3623C10.1787 3.27012 10.1409 3.19305 10.082 3.11133C9.95574 2.9943 9.95528 2.9946 9.34277 3.00391ZM8.58301 5.36816C8.64905 5.36805 8.71526 5.36836 8.78125 5.37109C8.81869 5.40481 8.81913 5.40507 8.84082 5.48926C8.84998 5.51834 8.85927 5.54697 8.86816 5.5752H8.9248C9.01385 5.66028 9.08586 5.75205 9.1377 5.86426C9.14676 5.89459 9.14638 5.89508 9.15527 5.9248H9.21289C9.25697 6.0252 9.31636 6.10162 9.38477 6.18652C9.47539 6.29809 9.57398 6.40741 9.64648 6.53223C9.70362 6.64469 9.77029 6.72986 9.85547 6.82324C9.91846 6.89215 9.97897 6.95924 10.0322 7.03613C10.1198 7.17668 10.2148 7.3025 10.3223 7.42773C10.389 7.50381 10.4555 7.57783 10.5078 7.66504C10.5521 7.74626 10.5955 7.82178 10.6514 7.89551C10.7617 8.02666 10.8686 8.15971 10.9678 8.2998C11.0232 8.37816 11.0787 8.4556 11.1377 8.53125C11.2367 8.65503 11.333 8.7798 11.4248 8.90918C11.4813 8.98877 11.5385 9.06773 11.5986 9.14453C11.6745 9.23916 11.7508 9.33309 11.8203 9.43262C11.89 9.53576 11.9593 9.63728 12.0371 9.73438C12.1159 9.82986 12.1996 9.92186 12.2637 10.0283C12.318 10.1338 12.3772 10.2164 12.4561 10.3037C12.5343 10.3901 12.6029 10.4759 12.666 10.5742C12.7127 10.6478 12.7585 10.7145 12.8135 10.7822C12.8747 10.8542 12.9327 10.9282 12.9893 11.0039C13.001 11.0197 13.012 11.0354 13.0234 11.0508C13.066 11.1079 13.1082 11.1665 13.1494 11.2246C13.1943 11.3025 13.2359 11.3697 13.2949 11.4375C13.3841 11.5319 13.4705 11.6239 13.54 11.7344C13.6154 11.8702 13.6909 11.9849 13.7959 12.0996C13.8578 12.1667 13.9167 12.2314 13.9688 12.3066C14.0564 12.4474 14.1521 12.5728 14.2598 12.6982C14.3269 12.7748 14.3926 12.8498 14.4453 12.9375C14.4856 13.0111 14.5241 13.0816 14.5762 13.1475C14.6731 13.2514 14.7588 13.3592 14.8408 13.4756C14.9 13.5597 14.9598 13.6418 15.0244 13.7217C15.1109 13.826 15.1972 13.9276 15.2705 14.042C15.3547 14.182 15.4381 14.3067 15.5488 14.4268C15.6378 14.5231 15.7103 14.6189 15.7783 14.7314C15.8478 14.8471 15.9232 14.9507 16.0088 15.0547C16.0909 15.1538 16.168 15.2537 16.2402 15.3604C16.3073 15.4596 16.3774 15.555 16.4521 15.6484C16.5307 15.7465 16.6061 15.8456 16.6787 15.9482C16.7309 16.0221 16.7832 16.0958 16.8389 16.167C16.8534 16.1852 16.8677 16.203 16.8818 16.2207C16.9105 16.2568 16.939 16.2931 16.9678 16.3291C17.0466 16.4254 17.1084 16.5052 17.1533 16.623C17.16 16.6486 17.1664 16.6735 17.1729 16.6982H17.2295C17.3249 16.7874 17.4064 16.8913 17.4746 17.0029C17.5469 17.1311 17.618 17.2443 17.7168 17.3535C17.799 17.4434 17.8709 17.5347 17.9395 17.6357C17.9923 17.7144 18.0444 17.788 18.1045 17.8613C18.1494 17.9157 18.1938 17.971 18.2363 18.0273C18.2575 18.0563 18.2783 18.0842 18.2988 18.1123C18.3569 18.1917 18.4043 18.2629 18.4434 18.3535C18.4508 18.3748 18.4586 18.3954 18.4658 18.416H18.5234C18.5397 18.4338 18.5555 18.4514 18.5713 18.4688C18.5904 18.4935 18.6084 18.5179 18.627 18.542C18.709 18.6483 18.7885 18.7566 18.8662 18.8662C18.9257 18.9503 18.9862 19.0321 19.0508 19.1123C19.1305 19.2089 19.2133 19.3023 19.2793 19.4092C19.3048 19.4567 19.3307 19.5044 19.3564 19.5518C19.4478 19.641 19.5189 19.7335 19.5908 19.8389C19.7082 20.0122 19.8274 20.182 19.96 20.3438C20.0228 20.4196 20.0807 20.4932 20.1357 20.5752C20.2034 20.6803 20.2035 20.6805 20.3906 20.9209C20.4762 21.0304 20.5623 21.1396 20.6416 21.2539C20.7285 21.3817 20.8167 21.5063 20.9131 21.627C20.9502 21.6726 20.9875 21.7181 21.0234 21.7646C21.1167 21.9095 21.2184 22.0408 21.3281 22.1729C21.4194 22.2813 21.4992 22.3745 21.5518 22.5078C21.5604 22.5443 21.5609 22.5444 21.5693 22.5801H21.626C21.6897 22.6535 21.7448 22.7312 21.7998 22.8115C21.9079 22.9739 22.0179 23.1306 22.1416 23.2812C22.2128 23.3658 22.2693 23.441 22.3164 23.541C22.0887 23.5416 21.8605 23.5427 21.6328 23.543C21.517 23.5431 21.401 23.5427 21.2852 23.543C21.1715 23.5433 21.0579 23.5438 20.9443 23.5439C20.9012 23.544 20.8576 23.5439 20.8145 23.5439C20.7523 23.5442 20.6901 23.5449 20.6279 23.5449C20.6087 23.5449 20.5899 23.5449 20.5713 23.5449C20.5113 23.545 20.4506 23.5438 20.3906 23.541C20.3574 23.5103 20.3568 23.5102 20.3311 23.4521C20.3219 23.433 20.3135 23.4141 20.3047 23.3955H20.2471C20.1595 23.2991 20.0802 23.1921 20.0146 23.0791C19.961 22.9769 19.903 22.8934 19.8271 22.8076C19.7742 22.7501 19.7323 22.7011 19.6953 22.6318C19.6876 22.6144 19.6803 22.597 19.6729 22.5801H19.6152C19.5677 22.5106 19.5326 22.4484 19.5088 22.3672C19.5058 22.3506 19.5029 22.3345 19.5 22.3184H19.4424C19.4078 22.2812 19.3732 22.2432 19.3408 22.2041C19.3278 22.1879 19.3154 22.172 19.3027 22.1562C19.2368 22.0755 19.172 21.9953 19.1172 21.9062C19.0717 21.819 19.0334 21.7583 18.9629 21.6885C18.8763 21.6058 18.8134 21.514 18.7471 21.4141C18.6533 21.2721 18.5532 21.1404 18.4424 21.0117C18.3773 20.9379 18.3125 20.8653 18.2617 20.7803C18.2232 20.7097 18.1889 20.6417 18.1348 20.582C17.9892 20.425 17.9894 20.4246 17.8623 20.251C17.8132 20.1764 17.767 20.0999 17.71 20.0312C17.6451 19.9567 17.5819 19.8826 17.5234 19.8027C17.4271 19.6666 17.33 19.5318 17.2275 19.4004C17.119 19.2617 17.0119 19.1225 16.9102 18.9785C16.8526 18.897 16.794 18.8179 16.7314 18.7402C16.6538 18.6461 16.5708 18.5549 16.5088 18.4492C16.4482 18.3283 16.3731 18.2394 16.2812 18.1396C16.216 18.0689 16.1522 18.0018 16.0996 17.9209C16.0419 17.8109 15.9832 17.7237 15.9023 17.6309C15.8628 17.5856 15.8232 17.5399 15.7842 17.4941C15.7604 17.4656 15.7369 17.4379 15.7139 17.4102C15.6419 17.3247 15.5951 17.2597 15.5557 17.1543C15.5485 17.128 15.5411 17.1026 15.5342 17.0771H15.4766C15.4396 17.0336 15.403 16.9897 15.3682 16.9443C15.3538 16.9252 15.3401 16.9062 15.3262 16.8877L14.9922 16.4424C14.9648 16.4081 14.9268 16.3626 14.8516 16.2725C14.7795 16.1877 14.7327 16.1236 14.6934 16.0186C14.6862 15.9924 14.6798 15.9668 14.6729 15.9414H14.6152C14.4823 15.7828 14.4815 15.7831 14.3613 15.6143C14.3032 15.5325 14.2452 15.4511 14.1836 15.3721C14.0824 15.2456 13.9838 15.1183 13.8896 14.9863C13.8182 14.885 13.7447 14.7859 13.667 14.6895C13.6446 14.6629 13.6223 14.6371 13.6006 14.6113C13.5779 14.5842 13.5562 14.5576 13.5342 14.5312C13.461 14.4447 13.4112 14.3783 13.3711 14.2715C13.364 14.2453 13.3575 14.2198 13.3506 14.1943H13.293C13.2326 14.124 13.1793 14.0498 13.125 13.9746C13.0493 13.8674 12.9736 13.7604 12.8926 13.6572C12.7926 13.5329 12.6952 13.4073 12.6025 13.2773C12.5894 13.2587 12.5763 13.2407 12.5635 13.2227C12.5026 13.1371 12.4427 13.0522 12.3936 12.959C12.3867 12.9435 12.3807 12.9281 12.374 12.9131H12.3164C12.2694 12.8562 12.229 12.7962 12.1885 12.7344C12.1162 12.6215 12.0435 12.5127 11.957 12.4102C11.9213 12.3682 11.8853 12.3261 11.8496 12.2842C11.8257 12.2555 11.8025 12.2271 11.7793 12.1992C11.7069 12.1134 11.6589 12.0482 11.6191 11.9424C11.6086 11.9035 11.6079 11.9031 11.5977 11.8652H11.54C11.4788 11.7939 11.425 11.718 11.3701 11.6416C11.2974 11.5383 11.2257 11.4346 11.1445 11.3379C11.0777 11.2622 11.0263 11.2022 10.9834 11.1094C10.9773 11.0891 10.9717 11.0694 10.9658 11.0498H10.9082C10.8887 11.0201 10.8696 10.9907 10.8506 10.9619C10.8031 10.8864 10.7561 10.8119 10.6992 10.7432C10.617 10.6486 10.5376 10.5522 10.4619 10.4521C10.4501 10.4363 10.4383 10.4206 10.4268 10.4053C10.3636 10.3215 10.3106 10.2468 10.2686 10.1504C10.2614 10.1294 10.254 10.1092 10.2471 10.0889H10.1895C10.1563 10.0491 10.1238 10.0083 10.0928 9.9668C10.0674 9.93204 10.0413 9.89781 10.0156 9.86328C10.0023 9.8454 9.98948 9.8279 9.97656 9.81055C9.93403 9.75299 9.89117 9.69547 9.84766 9.63867C9.70971 9.46082 9.57588 9.27992 9.44238 9.09863C9.38532 9.02066 9.32903 8.9421 9.27051 8.86523C9.2405 8.82859 9.24017 8.82867 9.21094 8.79297C9.18982 8.76715 9.16893 8.74185 9.14844 8.7168C9.08177 8.63694 9.04124 8.57701 9.00488 8.47852C8.9974 8.45183 8.98968 8.42531 8.98242 8.39941H8.9248C8.9108 8.38388 8.89739 8.3686 8.88379 8.35352C8.86751 8.33161 8.85174 8.31032 8.83594 8.28906C8.75974 8.18708 8.68523 8.08319 8.61133 7.97949C8.53664 7.87464 8.45922 7.77237 8.37891 7.67188C8.32017 7.59843 8.26313 7.52452 8.20801 7.44824C8.12967 7.33742 8.05191 7.22672 7.9668 7.12109C7.88894 7.02671 7.80591 6.93569 7.74316 6.83008C7.68579 6.71728 7.61966 6.63266 7.53516 6.54004C7.47214 6.4711 7.41167 6.40409 7.3584 6.32715C7.27083 6.18656 7.17586 6.06082 7.06836 5.93555C7.00194 5.85981 6.93551 5.78627 6.88379 5.69922C6.83578 5.61036 6.78845 5.52906 6.72363 5.45215C6.68917 5.41126 6.68907 5.41119 6.65527 5.37109C6.90658 5.37048 7.15788 5.37043 7.40918 5.37012C7.53726 5.36997 7.66586 5.36944 7.79395 5.36914C7.91954 5.36882 8.0453 5.36828 8.1709 5.36816H8.58301Z" fill="#242424"/>
</svg>
